<svg width="18" height="16" viewBox="0 0 18 16" fill="none" xmlns="http://www.w3.org/2000/svg">
<path fill-rule="evenodd" clip-rule="evenodd" d="M18 8C18 8.30305 17.8815 8.59369 17.6705 8.80798C17.4596 9.02227 17.1735 9.14265 16.8751 9.14265H3.84233L8.67254 14.0469C8.77713 14.1531 8.86009 14.2793 8.91669 14.4181C8.97329 14.5569 9.00243 14.7057 9.00243 14.8559C9.00243 15.0062 8.97329 15.1549 8.91669 15.2937C8.86009 15.4325 8.77713 15.5587 8.67254 15.6649C8.56796 15.7711 8.4438 15.8554 8.30715 15.9129C8.1705 15.9704 8.02404 16 7.87613 16C7.72822 16 7.58176 15.9704 7.44512 15.9129C7.30847 15.8554 7.18431 15.7711 7.07972 15.6649L0.330474 8.809C0.225718 8.70286 0.142606 8.57676 0.0858978 8.43794C0.0291896 8.29912 0 8.1503 0 8C0 7.8497 0.0291896 7.70088 0.0858978 7.56206C0.142606 7.42324 0.225718 7.29715 0.330474 7.191L7.07972 0.335098C7.29094 0.120538 7.57742 0 7.87613 0C8.17484 0 8.46132 0.120538 8.67254 0.335098C8.88376 0.549657 9.00243 0.840662 9.00243 1.14409C9.00243 1.44753 8.88376 1.73853 8.67254 1.95309L3.84233 6.85735H16.8751C17.1735 6.85735 17.4596 6.97774 17.6705 7.19202C17.8815 7.40631 18 7.69695 18 8Z" fill="#484561"/>
</svg>
