<svg width="38" height="33" viewBox="0 0 38 33" fill="none" xmlns="http://www.w3.org/2000/svg">
<path fill-rule="evenodd" clip-rule="evenodd" d="M12.647 23.3168L15.792 17.5111L15.559 23.9967C15.8034 24.3528 15.9463 24.7839 15.9463 25.2483C15.9463 26.4715 14.9547 27.4631 13.7316 27.4631C12.5084 27.4631 11.5168 26.4715 11.5168 25.2483C11.5168 24.4192 11.9724 23.6964 12.647 23.3168Z" fill="#F15884"/>
<path fill-rule="evenodd" clip-rule="evenodd" d="M23.1443 32.8893H15.6158C15.0351 32.9624 14.4432 33 13.8423 33C6.1974 33 0 26.9018 0 19.3792C0 11.8567 6.1974 5.75841 13.8423 5.75841C20.447 5.75841 25.9714 10.3101 27.3524 16.3996V11.2953C27.2785 9.37585 28.2826 5.53693 32.8893 5.53693C37.496 5.53693 37.9832 9.96646 37.651 12.1812H33.7752C33.7752 14.9275 36.3591 16.0571 37.651 16.2785C37.5624 25.7577 27.943 31.302 23.1443 32.8893ZM4.98262 19.9329C5.27288 24.4992 9.12854 28.1144 13.8423 28.1144C18.556 28.1144 22.4117 24.4992 22.7019 19.9329H19.4899V19.2685H22.7188C22.659 14.5315 18.7673 10.7026 13.953 10.6447V13.5101H13.2886L13.2886 10.6608C8.68077 10.9398 5.02375 14.6776 4.96578 19.2685H7.5302V19.9329H4.98262Z" fill="#F15884"/>
<circle cx="30.0101" cy="1.88255" r="1.88255" fill="#F15884"/>
<circle cx="35.3255" cy="1.88255" r="1.88255" fill="#F15884"/>
</svg>
