<svg width="42" height="35" viewBox="0 0 42 35" fill="none" xmlns="http://www.w3.org/2000/svg">
<circle cx="17.5" cy="17.5" r="17.5" fill="#F15884" fill-opacity="0.6"/>
<g clip-path="url(#clip0_61_557)">
<path d="M0.431096 31.8445C1.71184 31.3689 2.35112 31.1301 3.54951 30.8825C3.54951 30.8825 3.95908 30.7978 4.55503 30.5677C4.22563 30.4265 3.88757 30.2463 3.54951 30.0183C1.80935 28.8327 1.23725 27.0846 0.814664 25.7882C-0.0890027 23.0153 0.181879 19.8101 2.29261 17.6126C6.06114 13.6931 12.6729 10.5814 17.8717 13.5367C19.3605 14.3836 20.6174 15.5801 21.7074 16.8917C21.8569 17.0697 24.0652 19.7059 23.6946 19.8775C23.9676 19.7515 24.4899 19.4953 25.0859 19.1565C26.7068 18.238 27.747 17.3629 28.9714 16.3206C31.0583 14.5465 31.4115 13.9037 31.6087 13.4369C31.7886 13.0134 31.8905 12.6095 31.9923 11.9472C32.3911 9.35012 32.0812 7.2655 31.6564 2.86391C31.5936 2.20161 31.5437 1.66091 31.5134 1.3265C31.1211 1.11369 30.9933 0.63814 31.1775 0.31676C31.3985 -0.0697633 31.988 -0.0849637 32.2805 0.171271C32.5839 0.436192 32.4864 0.922604 32.4734 0.987748C32.4257 1.22444 32.3044 1.3873 32.2329 1.46765C32.3239 2.52299 32.4474 3.96919 32.6164 5.88878C32.6424 6.17325 32.6056 5.77804 32.9523 8.72474C33 9.1308 33.0888 9.89082 33.3836 10.8398C33.7801 12.1122 34.0987 12.2838 34.1984 12.3294C34.3934 12.4184 34.8008 12.5096 36.0209 11.7518C36.7295 11.311 38.0861 10.3533 40.0495 7.81054C40.303 7.48265 40.5024 7.21121 40.6259 7.04184C40.6216 6.94195 40.6259 6.75738 40.7213 6.56194C40.7668 6.4664 40.938 6.11896 41.2977 6.08204C41.5664 6.05381 41.872 6.20365 41.9695 6.4664C42.0952 6.80515 41.8005 7.14173 41.5859 7.28287C41.3779 7.41968 41.159 7.43053 41.0593 7.42619C39.5879 9.20463 38.1165 10.9831 36.6472 12.7615C36.7577 12.7876 38.0189 13.1046 38.422 14.2512C38.7384 15.1502 38.318 15.9623 38.1815 16.2207C37.7784 16.9981 37.228 17.2217 36.4543 17.8059C35.3924 18.6093 34.7705 19.4801 33.5288 21.2173C33.2362 21.6277 32.5688 22.5896 31.8493 23.9077C31.431 24.6786 31.2208 25.063 31.0345 25.5429C30.315 27.3864 30.7614 28.027 30.0745 29.6274C29.7949 30.2789 29.5045 30.9607 28.8284 31.5014C28.1479 32.0464 27.3895 32.2006 25.3264 32.2701C22.0195 32.3809 21.8548 32.0551 19.8589 32.2701C18.2357 32.446 18.0017 32.6979 16.4046 32.75C15.022 32.7956 14.478 32.6284 13.2385 32.5567C10.9631 32.4265 10.9457 32.8803 8.10686 32.9889C7.80347 32.9997 5.79459 32.8369 1.77468 32.509C1.16573 32.459 0.0171824 32.3613 -0.000151582 32.1246C-0.00882238 32.0117 0.288068 31.8988 0.431096 31.8445Z" fill="#484561"/>
</g>
<defs>
<clipPath id="clip0_61_557">
<rect width="42" height="33" fill="white" transform="matrix(-1 -8.74228e-08 -8.74228e-08 1 42 0)"/>
</clipPath>
</defs>
</svg>
