<svg width="15" height="19" viewBox="0 0 15 19" fill="none" xmlns="http://www.w3.org/2000/svg">
<path d="M7.5 7.5C11.2275 7.5 15 6.21187 15 3.75C15 1.28813 11.2275 0 7.5 0C3.7725 0 0 1.28813 0 3.75C0 6.21187 3.7725 7.5 7.5 7.5Z" fill="#484561"/>
<path d="M0 7.5C0 9.96187 3.7725 11.25 7.5 11.25C11.2275 11.25 15 9.96187 15 7.5V5.625C15 8.08687 11.2275 9.375 7.5 9.375C3.7725 9.375 0 8.08687 0 5.625V7.5Z" fill="#484561"/>
<path d="M0 11.25C0 13.7119 3.7725 15 7.5 15C11.2275 15 15 13.7119 15 11.25V9.375C15 11.8369 11.2275 13.125 7.5 13.125C3.7725 13.125 0 11.8369 0 9.375V11.25Z" fill="#484561"/>
<path d="M0 15C0 17.4619 3.7725 18.75 7.5 18.75C11.2275 18.75 15 17.4619 15 15V13.125C15 15.5869 11.2275 16.875 7.5 16.875C3.7725 16.875 0 15.5869 0 13.125V15Z" fill="#484561"/>
</svg>
