<svg width="221" height="190" viewBox="0 0 221 190" fill="none" xmlns="http://www.w3.org/2000/svg">
<path d="M101.752 125.859C101.752 125.859 126.423 122.721 135.058 117.753C143.693 112.785 207.837 110.432 207.837 125.859C207.837 141.287 134.071 148.085 134.071 148.085L95.3377 145.732L101.752 125.859Z" fill="#FBBEBE"/>
<path opacity="0.1" d="M101.752 125.859C101.752 125.859 126.423 122.721 135.058 117.753C143.693 112.785 207.837 110.432 207.837 125.859C207.837 141.287 134.071 148.085 134.071 148.085L95.3377 145.732L101.752 125.859Z" fill="black"/>
<path d="M108.907 122.983L103.726 138.933L22.5587 139.979V116.446C22.5587 116.446 53.644 108.863 78.3148 125.075C78.3148 125.075 107.426 121.414 108.907 122.983Z" fill="#F15884"/>
<path opacity="0.1" d="M108.907 122.957L103.726 138.908L22.5587 139.953V116.42C22.5587 116.42 53.644 108.837 78.3148 125.049C78.3148 125.049 107.426 121.388 108.907 122.957Z" fill="black"/>
<path d="M112.854 132.658C112.854 132.658 140.732 117.492 158.742 123.245C176.751 128.997 201.916 119.061 204.876 122.46C207.837 125.859 212.031 162.467 176.505 164.559C140.979 166.651 110.634 158.283 110.634 158.283L112.854 132.658Z" fill="#FBBEBE"/>
<path d="M104.022 131.295C104.022 131.295 117.695 130.557 117.082 134.743C116.469 138.929 115.856 171.369 112.178 172.154C108.5 172.939 79.3829 172.939 67.4295 172.939H0V122.784C0 122.784 47.8136 120.354 71.7204 130.557C71.7204 130.557 100.463 130.203 104.022 131.295Z" fill="#F15884"/>
<g clip-path="url(#clip0_35_2628)">
<path d="M115.182 123.342C118.34 121.913 119.916 121.196 122.906 120.356C122.906 120.356 123.928 120.069 125.395 119.382C124.536 119.086 123.648 118.692 122.751 118.178C118.132 115.504 116.371 111.201 115.069 108.011C112.284 101.185 112.396 93.0595 117.347 87.1419C126.188 76.5865 142.372 67.5553 156.066 74.0676C159.987 75.9339 163.384 78.7229 166.379 81.832C166.789 82.2538 172.853 88.4998 171.946 88.9988C172.614 88.6322 173.891 87.8926 175.339 86.9317C179.279 84.3253 181.757 81.9328 184.67 79.0859C189.637 74.2396 190.416 72.5563 190.832 71.3443C191.212 70.2449 191.397 69.2087 191.537 67.5214C192.081 60.9049 190.923 55.7073 189.06 44.6916C188.782 43.0339 188.559 41.6802 188.422 40.843C187.391 40.3773 186.982 39.2019 187.391 38.3588C187.881 37.345 189.371 37.2007 190.158 37.7938C190.973 38.4068 190.814 39.6501 190.792 39.8166C190.714 40.4216 190.436 40.8539 190.269 41.0692C190.689 43.7123 191.26 47.3346 192.032 52.1416C192.149 52.8538 191.985 51.8645 193.39 59.2279C193.584 60.2426 193.945 62.1419 194.861 64.4802C196.093 67.6156 196.931 67.9906 197.191 68.0875C197.701 68.2768 198.749 68.4333 201.703 66.304C203.418 65.0657 206.682 62.4084 211.198 55.6472C211.781 54.7753 212.237 54.0554 212.52 53.6063C212.491 53.3554 212.469 52.8894 212.675 52.3798C212.773 52.1308 213.145 51.2245 214.049 51.0667C214.724 50.9472 215.525 51.2698 215.819 51.9144C216.198 52.7455 215.512 53.6467 214.994 54.041C214.492 54.4232 213.939 54.4899 213.686 54.4969C210.279 59.2434 206.871 63.9898 203.469 68.7359C203.754 68.7817 207.004 69.3537 208.23 72.1705C209.192 74.3791 208.273 76.5013 207.974 77.1771C207.092 79.2087 205.738 79.8713 203.884 81.4826C201.339 83.6983 199.92 86.0046 197.087 90.6057C196.42 91.6926 194.902 94.2369 193.316 97.688C192.395 99.7058 191.932 100.712 191.546 101.955C190.054 106.73 191.299 108.264 189.846 112.421C189.255 114.113 188.642 115.884 187.026 117.368C185.401 118.864 183.508 119.389 178.296 119.935C169.943 120.809 169.467 120.018 164.452 120.919C160.373 121.654 159.826 122.331 155.791 122.75C152.298 123.113 150.891 122.79 147.739 122.832C141.954 122.913 141.992 124.06 134.823 124.844C134.056 124.926 128.941 124.877 118.703 124.774C117.152 124.758 114.226 124.718 114.14 124.125C114.098 123.842 114.829 123.504 115.182 123.342Z" fill="#484561"/>
</g>
<defs>
<clipPath id="clip0_35_2628">
<rect width="106.618" height="83.3707" fill="white" transform="matrix(-0.997485 0.0708754 0.0708754 0.997485 214.738 35.613)"/>
</clipPath>
</defs>
</svg>
