<svg width="199" height="205" viewBox="0 0 199 205" fill="none" xmlns="http://www.w3.org/2000/svg">
<path d="M100.049 204.997C96.7816 204.987 93.5282 204.578 90.3652 203.78L89.7418 203.612L89.1635 203.33C68.256 193.141 50.6173 179.682 36.7376 163.327C25.2481 149.709 16.2903 134.248 10.2672 117.638C3.06437 97.7514 -0.40087 76.7682 0.0368467 55.6897C0.045679 55.2472 0.0531539 54.9056 0.0531539 54.6702C0.0531539 44.4238 5.90428 35.4334 14.9596 31.7658C21.89 28.9588 84.8154 3.83552 89.3619 2.02029C97.9242 -2.15003 107.059 1.33076 108.52 1.93945C111.799 3.24253 169.97 26.3698 182.54 32.1882C195.496 38.1849 198.952 48.9578 198.952 54.3777C198.952 78.9158 194.58 101.848 185.958 122.539C178.994 139.286 169.125 154.748 156.779 168.249C132.96 194.305 109.134 203.542 108.904 203.623C106.056 204.575 103.06 205.04 100.049 204.997ZM94.4463 191.506C96.5119 191.956 101.268 192.632 104.367 191.533C108.305 190.137 128.247 180.085 146.882 159.7C172.629 131.536 185.693 96.1306 185.713 54.4683C185.667 53.6242 185.05 47.6041 176.848 43.808C164.521 38.1021 104.058 14.0699 103.449 13.8277L103.282 13.7589C102.014 13.2427 97.9819 12.1556 95.2022 13.5715L94.6457 13.8237C93.9717 14.0928 27.1757 40.7603 20.0519 43.6455C15.0686 45.6638 13.293 50.6639 13.293 54.6703C13.293 54.963 13.2853 55.3889 13.2742 55.9394C12.7049 84.4463 19.4913 154.593 94.4463 191.506Z" fill="#3F3D56"/>
<path d="M92.1305 7.87125C92.1305 7.87125 24.7274 34.7806 17.5057 37.7056C10.2839 40.6305 6.67303 47.6503 6.67303 54.6702C6.67303 61.6901 1.25673 153.29 92.1305 197.578C92.1305 197.578 100.378 199.796 106.636 197.578C112.893 195.359 192.332 157.92 192.332 54.3777C192.332 54.3777 192.332 43.8479 179.694 37.9981C167.056 32.1482 105.953 7.87125 105.953 7.87125C105.953 7.87125 98.4495 4.65382 92.1305 7.87125Z" fill="#F15884" fill-opacity="0.75"/>
<path opacity="0.1" d="M99.3524 28.9308V172.483C99.3524 172.483 31.3475 140.663 31.9493 57.0102L99.3524 28.9308Z" fill="black"/>
<path d="M97.6405 131.696L75.9775 104.621L88.5755 95.0966L98.8329 107.916L133.484 72.3596L145.071 83.0312L97.6405 131.696Z" fill="#FBFBFB"/>
</svg>
