<svg width="220" height="209" viewBox="0 0 220 209" fill="none" xmlns="http://www.w3.org/2000/svg">
<path d="M19.8199 0C19.4945 0.000331947 19.1824 0.12054 18.9523 0.334254C18.7221 0.547969 18.5926 0.83773 18.5923 1.13997V40.0219C18.5926 40.3242 18.7221 40.6139 18.9523 40.8276C19.1824 41.0413 19.4945 41.1616 19.8199 41.1619H162.6C162.925 41.1616 163.237 41.0413 163.467 40.8276C163.698 40.6139 163.827 40.3242 163.827 40.0219V1.13997C163.827 0.83773 163.698 0.547969 163.467 0.334254C163.237 0.12054 162.925 0.000331947 162.6 0H19.8199Z" fill="#E6E6E6"/>
<path d="M21.6685 38.3055H160.75V2.85645H21.6685V38.3055Z" fill="white"/>
<path d="M143.195 30.951C142.928 30.951 142.663 30.9999 142.417 31.0948C142.17 31.1897 141.946 31.3288 141.757 31.5042C141.568 31.6795 141.418 31.8877 141.316 32.1168C141.214 32.3459 141.161 32.5915 141.161 32.8395C141.161 33.0875 141.214 33.3331 141.316 33.5622C141.418 33.7913 141.568 33.9995 141.757 34.1748C141.946 34.3502 142.17 34.4893 142.417 34.5842C142.663 34.6791 142.928 34.728 143.195 34.728H151.329C151.596 34.728 151.861 34.6791 152.108 34.5842C152.354 34.4893 152.578 34.3502 152.767 34.1748C152.956 33.9995 153.106 33.7913 153.208 33.5622C153.31 33.3331 153.363 33.0875 153.363 32.8395C153.363 32.5915 153.31 32.3459 153.208 32.1168C153.106 31.8877 152.956 31.6795 152.767 31.5042C152.578 31.3288 152.354 31.1897 152.108 31.0948C151.861 30.9999 151.596 30.951 151.329 30.951H143.195Z" fill="#484561"/>
<path d="M153.363 27.2882H59.4595V27.7852H153.363V27.2882Z" fill="#E6E6E6"/>
<path d="M39.8309 31.5798C46.3726 31.5798 51.6757 26.6555 51.6757 20.581C51.6757 14.5065 46.3726 9.58215 39.8309 9.58215C33.2891 9.58215 27.986 14.5065 27.986 20.581C27.986 26.6555 33.2891 31.5798 39.8309 31.5798Z" fill="#E6E6E6"/>
<path d="M61.1985 31.2115C60.7422 31.2183 60.307 31.3914 59.9869 31.6935C59.6668 31.9956 59.4874 32.4024 59.4874 32.8262C59.4874 33.2499 59.6668 33.6567 59.9869 33.9588C60.307 34.2609 60.7422 34.434 61.1985 34.4408H79.3906C79.8514 34.4471 80.2961 34.2833 80.6269 33.9854C80.9577 33.6875 81.1477 33.2799 81.1551 32.852C81.1625 32.4242 80.9867 32.0111 80.6663 31.7035C80.3459 31.3959 79.9072 31.2189 79.4464 31.2115C79.4278 31.2112 79.4092 31.2112 79.3906 31.2115H61.1985Z" fill="#E6E6E6"/>
<path d="M60.7111 15.7859C60.2548 15.7927 59.8196 15.9658 59.4995 16.2679C59.1794 16.57 59 16.9768 59 17.4006C59 17.8243 59.1794 18.2312 59.4995 18.5332C59.8196 18.8353 60.2548 19.0084 60.7111 19.0152H78.9032C79.364 19.0215 79.8086 18.8577 80.1395 18.5598C80.4703 18.2619 80.6603 17.8543 80.6677 17.4264C80.6751 16.9986 80.4993 16.5855 80.1789 16.2779C79.8585 15.9703 79.4197 15.7933 78.959 15.7859C78.9404 15.7856 78.9218 15.7856 78.9032 15.7859H60.7111Z" fill="#E6E6E6"/>
<path d="M78.7111 15.7859C78.2548 15.7927 77.8196 15.9658 77.4995 16.2679C77.1794 16.57 77 16.9768 77 17.4006C77 17.8243 77.1794 18.2312 77.4995 18.5332C77.8196 18.8353 78.2548 19.0084 78.7111 19.0152H96.9032C97.364 19.0215 97.8086 18.8577 98.1395 18.5598C98.4703 18.2619 98.6603 17.8543 98.6677 17.4264C98.6751 16.9986 98.4993 16.5855 98.1789 16.2779C97.8585 15.9703 97.4197 15.7933 96.959 15.7859C96.9404 15.7856 96.9218 15.7856 96.9032 15.7859H78.7111Z" fill="#E6E6E6"/>
<path d="M104.711 15.7859C104.255 15.7927 103.82 15.9658 103.5 16.2679C103.179 16.57 103 16.9768 103 17.4006C103 17.8243 103.179 18.2312 103.5 18.5332C103.82 18.8353 104.255 19.0084 104.711 19.0152H122.903C123.364 19.0215 123.809 18.8577 124.139 18.5598C124.47 18.2619 124.66 17.8543 124.668 17.4264C124.675 16.9986 124.499 16.5855 124.179 16.2779C123.859 15.9703 123.42 15.7933 122.959 15.7859C122.94 15.7856 122.922 15.7856 122.903 15.7859H104.711Z" fill="#E6E6E6"/>
<path d="M44.5954 20.4444C44.4622 20.3207 44.2815 20.2512 44.0931 20.2512C43.9047 20.2512 43.724 20.3207 43.5908 20.4443L43.5907 20.4444L40.5412 23.276V16.2934C40.5397 16.1194 40.4641 15.9531 40.3311 15.8306C40.198 15.708 40.0182 15.6393 39.8309 15.6393C39.6435 15.6393 39.4637 15.708 39.3306 15.8306C39.1976 15.9531 39.122 16.1194 39.1205 16.2934V23.276L36.071 20.4444C35.938 20.3208 35.7577 20.2513 35.5695 20.251C35.3814 20.2508 35.2009 20.3198 35.0675 20.443C34.9341 20.5662 34.8589 20.7335 34.8582 20.9082C34.8575 21.0829 34.9314 21.2507 35.0638 21.3748L35.0663 21.3772L39.3285 25.335C39.4618 25.4587 39.6425 25.5281 39.8309 25.5281C40.0193 25.5281 40.1999 25.4587 40.3332 25.335L44.5954 21.3772C44.7286 21.2535 44.8034 21.0857 44.8034 20.9108C44.8034 20.7359 44.7286 20.5681 44.5954 20.4444Z" fill="white"/>
<path d="M75.9922 85.4286C75.6667 85.4289 75.3546 85.5491 75.1245 85.7629C74.8943 85.9766 74.7649 86.2663 74.7645 86.5686V125.451C74.7649 125.753 74.8943 126.043 75.1245 126.256C75.3546 126.47 75.6667 126.59 75.9922 126.59H218.772C219.098 126.59 219.41 126.47 219.64 126.256C219.87 126.043 220 125.753 220 125.451V86.5686C220 86.2663 219.87 85.9766 219.64 85.7629C219.41 85.5491 219.098 85.4289 218.772 85.4286H75.9922Z" fill="#E6E6E6"/>
<path d="M77.8411 123.734H216.923V88.285H77.8411V123.734Z" fill="white"/>
<path d="M199.367 116.381C198.828 116.381 198.311 116.58 197.929 116.934C197.548 117.288 197.334 117.768 197.334 118.269C197.334 118.77 197.548 119.25 197.929 119.604C198.311 119.959 198.828 120.157 199.367 120.157H207.501C208.04 120.157 208.558 119.959 208.939 119.604C209.32 119.25 209.535 118.77 209.535 118.269C209.535 117.768 209.32 117.288 208.939 116.934C208.558 116.58 208.04 116.381 207.501 116.381H199.367Z" fill="#484561"/>
<path d="M209.536 112.717H115.632V113.214H209.536V112.717Z" fill="#E6E6E6"/>
<path d="M96.003 117.009C102.545 117.009 107.848 112.084 107.848 106.01C107.848 99.9355 102.545 95.0112 96.003 95.0112C89.4612 95.0112 84.1581 99.9355 84.1581 106.01C84.1581 112.084 89.4612 117.009 96.003 117.009Z" fill="#FC6681"/>
<path d="M117.371 116.64C116.91 116.633 116.465 116.797 116.133 117.094C115.802 117.392 115.612 117.8 115.604 118.228C115.596 118.657 115.772 119.07 116.093 119.378C116.414 119.686 116.853 119.862 117.315 119.869C117.333 119.87 117.352 119.87 117.371 119.869H135.563C136.02 119.863 136.455 119.689 136.775 119.387C137.095 119.085 137.274 118.679 137.274 118.255C137.274 117.831 137.095 117.424 136.775 117.122C136.455 116.82 136.02 116.647 135.563 116.64H117.371Z" fill="#E6E6E6"/>
<path d="M116.767 103.072C116.306 103.065 115.861 103.228 115.53 103.526C115.198 103.824 115.008 104.232 115 104.66C114.993 105.088 115.169 105.502 115.49 105.809C115.81 106.117 116.25 106.294 116.711 106.301C116.73 106.301 116.749 106.301 116.767 106.301H134.959C135.416 106.294 135.851 106.121 136.171 105.819C136.491 105.517 136.671 105.11 136.671 104.686C136.671 104.262 136.491 103.856 136.171 103.554C135.851 103.252 135.416 103.078 134.959 103.072H116.767Z" fill="#E6E6E6"/>
<path d="M129.767 103.072C129.306 103.065 128.861 103.228 128.53 103.526C128.198 103.824 128.008 104.232 128 104.66C127.993 105.088 128.169 105.502 128.49 105.809C128.81 106.117 129.25 106.294 129.711 106.301C129.73 106.301 129.749 106.301 129.767 106.301H147.959C148.416 106.294 148.851 106.121 149.171 105.819C149.491 105.517 149.671 105.11 149.671 104.686C149.671 104.262 149.491 103.856 149.171 103.554C148.851 103.252 148.416 103.078 147.959 103.072H129.767Z" fill="#E6E6E6"/>
<path d="M148.767 103.072C148.306 103.065 147.861 103.228 147.53 103.526C147.198 103.824 147.008 104.232 147 104.66C146.993 105.088 147.169 105.502 147.49 105.809C147.81 106.117 148.25 106.294 148.711 106.301C148.73 106.301 148.749 106.301 148.767 106.301H166.959C167.416 106.294 167.851 106.121 168.171 105.819C168.491 105.517 168.671 105.11 168.671 104.686C168.671 104.262 168.491 103.856 168.171 103.554C167.851 103.252 167.416 103.078 166.959 103.072H148.767Z" fill="#E6E6E6"/>
<path d="M91.2385 106.147C91.3044 106.208 91.3827 106.256 91.4689 106.29C91.5551 106.323 91.6475 106.34 91.7407 106.34C91.834 106.34 91.9264 106.323 92.0126 106.29C92.0988 106.257 92.1771 106.208 92.2431 106.147L92.2431 106.147L95.2926 103.315V110.298C95.2926 110.473 95.3674 110.64 95.5007 110.764C95.6339 110.888 95.8146 110.957 96.003 110.957C96.1914 110.957 96.3721 110.888 96.5053 110.764C96.6385 110.64 96.7133 110.473 96.7133 110.298V103.315L99.7629 106.147C99.8288 106.208 99.9071 106.257 99.9933 106.29C100.079 106.323 100.172 106.34 100.265 106.34C100.358 106.34 100.451 106.323 100.537 106.29C100.623 106.257 100.702 106.208 100.767 106.147C100.833 106.085 100.886 106.013 100.921 105.933C100.957 105.853 100.976 105.767 100.976 105.68C100.976 105.594 100.957 105.508 100.921 105.428C100.886 105.348 100.833 105.275 100.767 105.214L96.5053 101.256C96.372 101.132 96.1914 101.063 96.003 101.063C95.8146 101.063 95.6339 101.132 95.5007 101.256L91.2385 105.214C91.1052 105.338 91.0304 105.505 91.0304 105.68C91.0304 105.855 91.1052 106.023 91.2385 106.147Z" fill="white"/>
<path d="M1.22766 167.143C0.902178 167.143 0.590127 167.263 0.359973 167.477C0.129819 167.691 0.000357481 167.981 0 168.283V207.165C0.000357481 207.467 0.129819 207.757 0.359973 207.971C0.590127 208.184 0.902178 208.304 1.22766 208.305H144.007C144.333 208.304 144.645 208.184 144.875 207.971C145.105 207.757 145.235 207.467 145.235 207.165V168.283C145.235 167.981 145.105 167.691 144.875 167.477C144.645 167.263 144.333 167.143 144.007 167.143H1.22766Z" fill="#E6E6E6"/>
<path d="M3.07654 205.448H142.159V169.999H3.07654V205.448Z" fill="white"/>
<path d="M124.603 198.094C124.063 198.094 123.546 198.293 123.165 198.647C122.783 199.002 122.569 199.482 122.569 199.983C122.569 200.484 122.783 200.964 123.165 201.318C123.546 201.672 124.063 201.871 124.603 201.871H132.737C133.276 201.871 133.794 201.672 134.175 201.318C134.556 200.964 134.771 200.484 134.771 199.983C134.771 199.482 134.556 199.002 134.175 198.647C133.794 198.293 133.276 198.094 132.737 198.094H124.603Z" fill="#484561"/>
<path d="M134.771 194.432H40.8672V194.929H134.771V194.432Z" fill="#E6E6E6"/>
<path d="M21.2384 198.723C27.7802 198.723 33.0833 193.798 33.0833 187.724C33.0833 181.649 27.7802 176.725 21.2384 176.725C14.6967 176.725 9.39355 181.649 9.39355 187.724C9.39355 193.798 14.6967 198.723 21.2384 198.723Z" fill="#484561"/>
<path d="M42.6062 198.354C42.1499 198.361 41.7148 198.534 41.3947 198.836C41.0745 199.138 40.8951 199.545 40.8951 199.969C40.8951 200.392 41.0745 200.799 41.3947 201.101C41.7148 201.403 42.1499 201.576 42.6062 201.583H60.7983C61.0267 201.587 61.2535 201.548 61.4659 201.47C61.6783 201.392 61.8721 201.276 62.0362 201.129C62.2003 200.981 62.3315 200.805 62.4223 200.611C62.5131 200.416 62.5618 200.207 62.5655 199.995C62.5692 199.783 62.5279 199.572 62.444 199.375C62.36 199.178 62.2351 198.998 62.0762 198.845C61.9174 198.693 61.7278 198.571 61.5182 198.487C61.3087 198.403 61.0833 198.357 60.855 198.354C60.8361 198.354 60.8172 198.354 60.7983 198.354H42.6062Z" fill="#E6E6E6"/>
<path d="M42.7111 184.786C42.2548 184.793 41.8196 184.966 41.4995 185.268C41.1794 185.57 41 185.977 41 186.401C41 186.824 41.1794 187.231 41.4995 187.533C41.8196 187.835 42.2548 188.008 42.7111 188.015H60.9032C61.1315 188.019 61.3584 187.98 61.5708 187.902C61.7832 187.824 61.9769 187.708 62.141 187.561C62.3051 187.413 62.4363 187.237 62.5272 187.043C62.618 186.848 62.6666 186.639 62.6704 186.427C62.6741 186.215 62.6328 186.004 62.5488 185.807C62.4649 185.61 62.3399 185.43 62.1811 185.277C62.0222 185.125 61.8326 185.003 61.6231 184.919C61.4135 184.835 61.1882 184.789 60.9598 184.786C60.9409 184.786 60.9221 184.786 60.9032 184.786H42.7111Z" fill="#E6E6E6"/>
<path d="M53.7111 184.786C53.2548 184.793 52.8196 184.966 52.4995 185.268C52.1794 185.57 52 185.977 52 186.401C52 186.824 52.1794 187.231 52.4995 187.533C52.8196 187.835 53.2548 188.008 53.7111 188.015H71.9032C72.1315 188.019 72.3584 187.98 72.5708 187.902C72.7832 187.824 72.9769 187.708 73.141 187.561C73.3051 187.413 73.4363 187.237 73.5272 187.043C73.618 186.848 73.6666 186.639 73.6704 186.427C73.6741 186.215 73.6328 186.004 73.5488 185.807C73.4649 185.61 73.3399 185.43 73.1811 185.277C73.0222 185.125 72.8326 185.003 72.6231 184.919C72.4135 184.835 72.1882 184.789 71.9598 184.786C71.9409 184.786 71.9221 184.786 71.9032 184.786H53.7111Z" fill="#E6E6E6"/>
<path d="M16.4741 187.86C16.54 187.922 16.6183 187.97 16.7045 188.003C16.7907 188.037 16.883 188.054 16.9763 188.054C17.0696 188.054 17.162 188.037 17.2482 188.003C17.3344 187.97 17.4127 187.922 17.4786 187.86L17.4787 187.86L20.5282 185.029V192.011C20.529 192.185 20.6039 192.352 20.7366 192.475C20.8692 192.598 21.0488 192.668 21.2363 192.668C21.4238 192.669 21.6039 192.6 21.7373 192.478C21.8708 192.356 21.9469 192.19 21.9489 192.016V185.029L24.9984 187.86C25.1313 187.984 25.3118 188.054 25.5002 188.055C25.6886 188.055 25.8695 187.986 26.0031 187.863C26.1366 187.739 26.2119 187.572 26.2124 187.397C26.2129 187.222 26.1385 187.054 26.0056 186.93L26.0031 186.928L21.7409 182.97C21.6077 182.846 21.427 182.777 21.2386 182.777C21.0502 182.777 20.8695 182.846 20.7363 182.97L16.4741 186.928C16.4081 186.989 16.3558 187.062 16.3201 187.142C16.2844 187.222 16.266 187.307 16.266 187.394C16.266 187.481 16.2844 187.566 16.3201 187.646C16.3558 187.726 16.4081 187.799 16.4741 187.86Z" fill="white"/>
</svg>
