<svg width="40" height="40" viewBox="0 0 40 40" fill="none" xmlns="http://www.w3.org/2000/svg">
<path d="M20.9217 18.5784V19.0784H21.4217H28.0295V20.9216H21.4217H20.9217V21.4216V28.0294H19.0785V21.4216V20.9216H18.5785H11.9707V19.0784H18.5785H19.0785V18.5784V11.9706H20.9217V18.5784Z" fill="#484561" stroke="#484561"/>
<path d="M0.5 20C0.5 9.2315 9.2315 0.5 20 0.5C30.7685 0.5 39.5 9.2315 39.5 20C39.5 30.7685 30.7685 39.5 20 39.5C9.2315 39.5 0.5 30.7685 0.5 20ZM2.89286 20C2.89286 29.4458 10.5542 37.1071 20 37.1071C29.4458 37.1071 37.1071 29.4458 37.1071 20C37.1071 10.5542 29.4458 2.89286 20 2.89286C10.5542 2.89286 2.89286 10.5542 2.89286 20Z" fill="#484561" stroke="#484561"/>
</svg>
