<svg width="319" height="237" viewBox="0 0 319 237" fill="none" xmlns="http://www.w3.org/2000/svg">
<g clip-path="url(#clip0_35_2469)">
<path opacity="0.1" d="M54.5203 34.54C52.8111 36.3212 52.153 38.831 51.4169 41.1883C45.4908 60.1834 30.8876 75.4636 14.257 86.3811C7.21428 91.0053 -1.35989 97.2052 0.180904 105.491C1.01056 109.944 4.65045 113.22 7.35463 116.845C10.1699 120.679 12.0674 125.106 12.9012 129.786C13.7349 134.466 13.4828 139.275 12.1641 143.843C9.0888 154.184 0.492807 163.831 3.15332 174.288C4.79392 180.734 10.3645 185.305 15.7198 189.235C24.0746 195.374 32.6956 201.123 41.5827 206.483C47.54 210.077 53.8778 213.574 60.8207 214.028C66.934 214.43 72.9225 212.434 78.727 210.46C83.7985 208.738 88.9979 206.941 93.0931 203.488C95.7661 201.233 97.8964 198.325 100.866 196.478C107.84 192.143 116.798 194.89 124.795 196.737C143.816 201.08 163.712 199.513 181.817 192.246C209.361 181.117 230.355 157.747 257.297 145.207C268.881 139.813 281.481 136.466 292.208 129.522C298.117 125.691 303.31 120.86 307.553 115.244C315.663 104.486 320.048 90.7718 318.782 77.3506C317.515 63.9295 310.42 50.991 299.275 43.4085C287.345 35.3123 272.277 33.7833 258.703 28.91C244.686 23.8809 232.217 15.2304 218.334 9.83699C195.637 1.03073 169.481 1.54141 147.133 11.2352C132.025 17.7931 116.71 33.1231 99.8832 34.2784C87.8937 35.0974 63.8805 24.7684 54.5203 34.54Z" fill="#F15884"/>
<path opacity="0.1" d="M239.459 237C281.363 237 315.332 231.889 315.332 225.584C315.332 219.279 281.363 214.168 239.459 214.168C197.555 214.168 163.586 219.279 163.586 225.584C163.586 231.889 197.555 237 239.459 237Z" fill="#484561"/>
<path opacity="0.1" d="M104.5 193C125.211 193 142 190.314 142 187C142 183.686 125.211 181 104.5 181C83.7893 181 67 183.686 67 187C67 190.314 83.7893 193 104.5 193Z" fill="black"/>
<path opacity="0.1" d="M168 148C172.971 148 177 147.105 177 146C177 144.895 172.971 144 168 144C163.029 144 159 144.895 159 146C159 147.105 163.029 148 168 148Z" fill="black"/>
<path opacity="0.06" d="M59 133C67.2843 133 74 131.881 74 130.5C74 129.119 67.2843 128 59 128C50.7157 128 44 129.119 44 130.5C44 131.881 50.7157 133 59 133Z" fill="black"/>
<path opacity="0.05" d="M97.5 114C101.09 114 104 113.328 104 112.5C104 111.672 101.09 111 97.5 111C93.9102 111 91 111.672 91 112.5C91 113.328 93.9102 114 97.5 114Z" fill="black"/>
<path opacity="0.05" d="M7.5 107C10.5376 107 13 106.328 13 105.5C13 104.672 10.5376 104 7.5 104C4.46244 104 2 104.672 2 105.5C2 106.328 4.46244 107 7.5 107Z" fill="black"/>
<path d="M22.9871 158.612C22.9871 158.612 31.4739 175.241 24.5466 184.343C17.6193 193.445 25.1704 218.229 25.1704 218.229" stroke="#FC6681" stroke-width="2" stroke-miterlimit="10"/>
<path d="M25.5042 153.434C25.5042 156.641 23.1462 159.238 23.1462 159.238C23.1462 159.238 20.7882 156.638 20.7882 153.434C20.7882 150.23 23.1462 147.629 23.1462 147.629C23.1462 147.629 25.5042 150.227 25.5042 153.434Z" fill="#FC6681"/>
<path d="M27.388 158.612C27.388 158.612 18.9012 175.241 25.8285 184.343C32.7559 193.445 25.2047 218.229 25.2047 218.229" stroke="#FFD037" stroke-width="2" stroke-miterlimit="10"/>
<path d="M24.8741 153.434C24.8741 156.641 27.2321 159.238 27.2321 159.238C27.2321 159.238 29.5901 156.638 29.5901 153.434C29.5901 150.23 27.2321 147.629 27.2321 147.629C27.2321 147.629 24.8741 150.227 24.8741 153.434Z" fill="#FFD037"/>
<path d="M30.847 158.612C30.847 158.612 39.3339 175.241 32.4065 184.343C25.4792 193.445 33.0303 218.229 33.0303 218.229" stroke="#FC6681" stroke-width="2" stroke-miterlimit="10"/>
<path d="M33.3609 153.434C33.3609 156.641 31.003 159.238 31.003 159.238C31.003 159.238 28.645 156.638 28.645 153.434C28.645 150.23 30.9967 147.629 30.9967 147.629C30.9967 147.629 33.3609 150.227 33.3609 153.434Z" fill="#FC6681"/>
<path d="M32.0385 166.765C29.8115 169.075 26.3089 169.315 26.3089 169.315C26.3089 169.315 26.4149 165.812 28.6419 163.501C30.8689 161.191 34.3715 160.951 34.3715 160.951C34.3715 160.951 34.2655 164.448 32.0385 166.765Z" fill="#FC6681"/>
<path d="M32.2443 178.23C30.0174 180.541 26.5147 180.781 26.5147 180.781C26.5147 180.781 26.6208 177.277 28.8477 174.967C31.0747 172.656 34.5774 172.417 34.5774 172.417C34.5774 172.417 34.4869 175.92 32.2443 178.23Z" fill="#FC6681"/>
<path d="M20.1862 184.542C22.2916 186.962 22.2167 190.459 22.2167 190.459C22.2167 190.459 18.7297 190.038 16.6243 187.619C14.519 185.199 14.5939 181.702 14.5939 181.702C14.5939 181.702 18.0809 182.123 20.1862 184.542Z" fill="#FC6681"/>
<path d="M22.1387 160.076C24.8149 161.848 25.6819 165.245 25.6819 165.245C25.6819 165.245 22.2105 165.771 19.5344 164C16.8583 162.228 15.9912 158.83 15.9912 158.83C15.9912 158.83 19.4564 158.304 22.1387 160.076Z" fill="#FC6681"/>
<path d="M35.2448 158.612C35.2448 158.612 26.758 175.241 33.6853 184.343C40.6126 193.445 33.0615 218.229 33.0615 218.229" stroke="#FFD037" stroke-width="2" stroke-miterlimit="10"/>
<path d="M32.7309 153.434C32.7309 156.641 35.0889 159.238 35.0889 159.238C35.0889 159.238 37.4468 156.638 37.4468 153.434C37.4468 150.23 35.0889 147.629 35.0889 147.629C35.0889 147.629 32.7309 150.227 32.7309 153.434Z" fill="#FFD037"/>
<path d="M33.4108 167.005C31.1558 169.287 31.0092 172.79 31.0092 172.79C31.0092 172.79 34.515 172.591 36.77 170.299C39.0251 168.007 39.1717 164.513 39.1717 164.513C39.1717 164.513 35.6753 164.722 33.4108 167.005Z" fill="#FFD037"/>
<path d="M37.8305 182.889C35.5754 185.171 35.4289 188.675 35.4289 188.675C35.4289 188.675 38.9346 188.475 41.1897 186.183C43.4447 183.891 43.5913 180.398 43.5913 180.398C43.5913 180.398 40.0824 180.606 37.8305 182.889Z" fill="#FFD037"/>
<path d="M31.3273 179.398C31.3273 179.398 36.4363 171.361 43.6038 171.187" stroke="#FFD037" stroke-width="2" stroke-miterlimit="10"/>
<path d="M27.3506 174.55C27.3506 174.55 22.2417 166.513 15.0742 166.338" stroke="#FC6681" stroke-width="2" stroke-miterlimit="10"/>
<path d="M26.6863 186.018C26.6863 186.018 31.7952 177.981 38.9627 177.807" stroke="#FFD037" stroke-width="2" stroke-miterlimit="10"/>
<path d="M43.3699 172.451C44.102 172.451 44.6954 171.858 44.6954 171.127C44.6954 170.396 44.102 169.804 43.3699 169.804C42.6378 169.804 42.0443 170.396 42.0443 171.127C42.0443 171.858 42.6378 172.451 43.3699 172.451Z" fill="#FFD037"/>
<path d="M15.1958 167.705C15.9279 167.705 16.5214 167.113 16.5214 166.382C16.5214 165.651 15.9279 165.058 15.1958 165.058C14.4637 165.058 13.8702 165.651 13.8702 166.382C13.8702 167.113 14.4637 167.705 15.1958 167.705Z" fill="#FC6681"/>
<path d="M30.4416 188.665C30.4416 188.665 25.3357 180.625 18.1651 180.466" stroke="#FC6681" stroke-width="2" stroke-miterlimit="10"/>
<path d="M18.2899 181.827C19.022 181.827 19.6155 181.234 19.6155 180.503C19.6155 179.773 19.022 179.18 18.2899 179.18C17.5578 179.18 16.9643 179.773 16.9643 180.503C16.9643 181.234 17.5578 181.827 18.2899 181.827Z" fill="#FC6681"/>
<path d="M39.0625 179.18C39.7946 179.18 40.3881 178.588 40.3881 177.857C40.3881 177.126 39.7946 176.533 39.0625 176.533C38.3304 176.533 37.7369 177.126 37.7369 177.857C37.7369 178.588 38.3304 179.18 39.0625 179.18Z" fill="#FFD037"/>
<path d="M58.678 208.573C58.678 208.573 46.3672 206.116 43.0829 202.837C39.7986 199.558 25.0301 193.825 23.3895 197.92C21.7489 202.015 1.24449 215.943 15.1833 218.403C29.1222 220.863 48.0078 221.679 52.1124 220.041C56.2171 218.403 58.678 208.573 58.678 208.573Z" fill="#A8A8A8"/>
<path opacity="0.2" d="M15.1833 216.881C29.1347 219.338 48.0078 220.157 52.1124 218.519C55.2314 217.273 57.4148 211.276 58.2662 208.485L58.678 208.57C58.678 208.57 56.2171 218.4 52.128 220.038C48.039 221.676 29.1503 220.857 15.1989 218.4C11.1723 217.69 10.0214 216.024 10.4549 213.916C10.7855 215.296 12.186 216.354 15.1833 216.881Z" fill="black"/>
<path d="M287.161 169.44C287.161 169.44 290.411 173.684 285.661 180.089C280.911 186.495 276.993 191.904 278.578 195.899C278.578 195.899 285.751 184 291.578 183.832C297.404 183.664 293.58 176.595 287.161 169.44Z" fill="#FC6681"/>
<path opacity="0.1" d="M287.161 169.44C287.445 169.849 287.668 170.297 287.825 170.769C293.518 177.446 296.559 183.677 291.079 183.848C285.982 183.994 279.869 193.093 278.403 195.391C278.451 195.569 278.51 195.743 278.578 195.914C278.578 195.914 285.751 184.016 291.578 183.848C297.404 183.68 293.58 176.595 287.161 169.44Z" fill="black"/>
<path d="M293.203 174.861C293.203 176.356 293.034 177.564 292.828 177.564C292.623 177.564 292.454 176.353 292.454 174.861C292.454 173.369 292.663 174.07 292.872 174.07C293.081 174.07 293.203 173.354 293.203 174.861Z" fill="#FFD037"/>
<path d="M295.277 176.63C293.964 177.346 292.819 177.776 292.719 177.595C292.619 177.414 293.605 176.686 294.902 175.973C296.2 175.26 295.698 175.78 295.798 175.973C295.897 176.166 296.59 175.917 295.277 176.63Z" fill="#FFD037"/>
<path d="M269.994 169.44C269.994 169.44 266.744 173.684 271.494 180.089C276.245 186.495 280.162 191.904 278.578 195.899C278.578 195.899 271.404 184 265.578 183.832C259.751 183.664 263.575 176.595 269.994 169.44Z" fill="#FC6681"/>
<path opacity="0.1" d="M269.994 169.44C269.711 169.849 269.487 170.297 269.33 170.769C263.638 177.446 260.597 183.677 266.077 183.848C271.173 183.994 277.286 193.093 278.752 195.391C278.704 195.569 278.646 195.743 278.578 195.914C278.578 195.914 271.404 184.016 265.578 183.848C259.751 183.68 263.575 176.595 269.994 169.44Z" fill="black"/>
<path d="M263.949 174.861C263.949 176.356 264.118 177.564 264.324 177.564C264.53 177.564 264.698 176.353 264.698 174.861C264.698 173.369 264.489 174.07 264.28 174.07C264.071 174.07 263.949 173.354 263.949 174.861Z" fill="#FFD037"/>
<path d="M261.878 176.63C263.192 177.346 264.336 177.776 264.436 177.595C264.536 177.414 263.55 176.686 262.253 175.973C260.955 175.26 261.457 175.78 261.358 175.973C261.258 176.166 260.556 175.917 261.878 176.63Z" fill="#FFD037"/>
<path d="M264.985 195.345C264.985 195.345 274.074 195.064 276.812 193.118C279.551 191.172 290.792 188.846 291.472 191.969C292.152 195.092 305.13 207.498 294.868 207.582C284.607 207.667 271.03 205.988 268.294 204.325C265.559 202.662 264.985 195.345 264.985 195.345Z" fill="#A8A8A8"/>
<path opacity="0.2" d="M295.052 206.493C284.794 206.577 271.214 204.898 268.478 203.235C266.398 201.968 265.568 197.428 265.291 195.332H264.979C264.979 195.332 265.556 202.65 268.288 204.313C271.02 205.976 284.6 207.654 294.862 207.57C297.825 207.545 298.848 206.496 298.792 204.936C298.383 205.888 297.254 206.477 295.052 206.493Z" fill="black"/>
<path d="M128.378 29.8068C127.496 28.3681 126.176 27.0509 126.382 25.4192C128.803 25.6964 131.098 25.1078 133.316 24.0864C135.533 23.0651 137.592 21.7292 139.666 20.4244C140.483 19.9106 141.297 19.4062 142.108 18.9391C143.393 18.2011 144.669 17.3821 145.976 16.6628C147.847 15.6352 149.759 14.7944 151.858 14.6325C152.236 14.6045 152.619 14.5982 153.003 14.6045C155.592 14.6574 158.274 15.3487 160.551 14.1903L160.691 14.1156C161.98 13.4087 162.922 12.2036 164.029 11.232C164.825 10.5446 165.691 9.94331 166.614 9.4384C168.292 8.50421 170.114 7.75686 171.836 6.87562C172.275 6.64699 172.692 6.37914 173.083 6.07533L173.376 5.84178L173.442 5.78573L173.654 5.60512L173.788 5.48679L173.925 5.36223L174.031 5.26259L174.203 5.10066L174.222 5.08198L174.496 4.81106L174.605 4.70207L174.796 4.50901L174.908 4.39379L175.482 3.80526C175.706 3.57794 175.937 3.35373 176.174 3.13575L176.399 2.93646L176.464 2.88041L176.645 2.72783L176.733 2.6562L176.91 2.51919L176.998 2.45069L177.266 2.25762C177.349 2.2009 177.437 2.15092 177.528 2.10815L176.966 0.688186L178.644 -0.00311279L201.784 56.0636L200.106 56.7549L186.866 24.6812L186.773 24.7746C183.706 27.7947 179.95 30.0259 175.828 31.2766H175.803C173.498 31.971 170.919 32.463 168.979 33.7677C168.291 34.2141 167.693 34.7856 167.216 35.4524C166.761 36.1001 166.443 36.8381 165.953 37.4609C165.863 37.5761 165.763 37.6882 165.663 37.7941C165.096 38.3544 164.468 38.8505 163.792 39.2732L163.48 39.4756C161.47 40.8883 159.377 42.1778 157.211 43.3369C155.961 43.9867 154.657 44.5284 153.315 44.9562C152.339 45.2676 151.331 45.4949 150.355 45.8032C149.697 46.0011 149.058 46.2574 148.446 46.5692C146.793 47.4318 145.524 48.7832 144.323 50.225C143.272 51.4892 142.274 52.8251 141.12 53.9773C140.399 54.6966 139.298 55.3723 138.422 54.952C138.361 54.9217 138.303 54.8873 138.247 54.8492C138.272 54.8025 138.297 54.7558 138.319 54.706C139.008 53.2642 138.16 51.483 137.018 50.3246C136.9 50.2063 136.778 50.088 136.653 49.9728C136.528 49.8575 136.307 49.6614 136.126 49.5057C135.15 48.668 134.111 47.8895 133.434 46.809C132.919 45.9009 132.568 44.9088 132.399 43.8787C132.087 42.4121 131.881 40.9018 131.083 39.6531C130.556 38.8279 129.779 38.1242 129.211 37.3332C128.852 36.8667 128.616 36.3173 128.525 35.7357C128.397 34.7206 128.868 33.7304 129.046 32.7214C129.098 32.4465 129.119 32.1665 129.108 31.8869C129.045 31.143 128.794 30.4272 128.378 29.8068Z" fill="url(#paint0_linear_35_2469)"/>
<path d="M199.501 56.301L201.153 55.621L178.396 0.49692L176.744 1.17687L199.501 56.301Z" fill="#D6D8E1"/>
<path d="M131.644 39.4631C132.43 40.69 132.636 42.1754 132.939 43.6172C133.106 44.6299 133.451 45.605 133.958 46.4976C134.626 47.5594 135.646 48.3286 136.603 49.1507C136.778 49.3001 136.953 49.4621 137.121 49.6084C137.29 49.7548 137.364 49.8357 137.48 49.9541C138.603 51.0907 139.435 52.8407 138.759 54.2607C138.737 54.3074 138.715 54.3541 138.687 54.4008C138.742 54.4378 138.799 54.4711 138.858 54.5004C139.719 54.9146 140.802 54.2482 141.51 53.5413C142.645 52.4079 143.627 51.0938 144.66 49.8513C145.839 48.4313 147.089 47.1048 148.714 46.2547C149.315 45.9483 149.941 45.6961 150.586 45.5011C151.543 45.1897 152.535 44.9686 153.496 44.6666C154.817 44.2464 156.099 43.7141 157.329 43.0753C159.459 41.9358 161.517 40.6682 163.492 39.2794L163.786 39.0801C164.451 38.6645 165.068 38.1768 165.626 37.6259C165.726 37.52 165.822 37.411 165.91 37.2989C166.39 36.6762 166.705 35.9599 167.157 35.3247C167.626 34.669 168.215 34.107 168.891 33.6681C170.8 32.4007 173.333 31.9149 175.6 31.233H175.625C179.678 30.0032 183.37 27.8094 186.386 24.84C186.636 24.6321 186.823 24.358 186.925 24.0491C187.022 23.61 186.785 23.1772 186.557 22.8035C186.291 22.3509 186.032 21.8942 185.781 21.4333C184.629 19.3423 183.602 17.1858 182.702 14.975C182.506 14.4923 182.316 14.0066 182.132 13.5177C181.66 12.2721 181.229 11.0089 180.84 9.72799C180.712 9.30137 180.588 8.87788 180.469 8.44815C180.447 8.36719 180.425 8.28 180.401 8.18658C179.883 6.08466 179.19 1.23623 177.06 2.69045C176.425 3.14107 175.835 3.65207 175.298 4.21629C174.883 4.63667 174.478 5.06951 174.05 5.48678C173.703 5.829 173.335 6.1503 172.949 6.44899C172.558 6.74802 172.141 7.01069 171.702 7.23371C170.011 8.09939 168.218 8.82494 166.568 9.7529C165.66 10.249 164.808 10.8398 164.026 11.5154C162.937 12.4745 162.011 13.6578 160.744 14.3522L160.604 14.4238C158.365 15.5635 155.729 14.8816 153.184 14.8286C152.807 14.8286 152.429 14.8286 152.058 14.8567C149.993 15.0155 148.103 15.8438 146.275 16.8527C144.99 17.5627 143.737 18.3661 142.473 19.0917C141.675 19.5494 140.876 20.0445 140.072 20.5521C138.029 21.835 135.964 23.1834 133.834 24.1518C131.703 25.1203 129.395 25.7368 127.016 25.4628C126.813 27.0665 128.11 28.3619 128.977 29.7787C129.391 30.3865 129.644 31.0895 129.71 31.8215C129.72 32.096 129.699 32.3707 129.648 32.6405C129.473 33.6338 129.024 34.6054 129.136 35.605C129.228 36.1719 129.459 36.7071 129.81 37.1619C130.362 37.9591 131.117 38.6535 131.644 39.4631Z" fill="#E6E8ED"/>
<path d="M172.943 6.4521L174.683 10.5781L180.397 8.17412C179.883 6.08465 179.19 1.23623 177.06 2.69044C175.516 3.74296 174.471 5.28125 172.943 6.4521Z" fill="#5A5773"/>
<path d="M160.748 14.3553L161.49 16.1178L168.084 13.3464L166.568 9.7529C165.66 10.249 164.808 10.8398 164.026 11.5154C162.931 12.4776 162.017 13.6609 160.748 14.3553Z" fill="#5A5773"/>
<path d="M146.282 16.8589L148.306 21.6544L154.899 18.883L153.19 14.8349C152.813 14.8349 152.435 14.8349 152.064 14.8629C149.999 15.0186 148.109 15.8469 146.282 16.8589Z" fill="#5A5773"/>
<path d="M133.831 24.1456L135.116 27.191L141.709 24.4196L140.075 20.5459C138.035 21.8413 135.967 23.1865 133.831 24.1456Z" fill="#5A5773"/>
<path d="M170.86 19.9171L177.455 17.1466L174.68 10.5624L168.085 13.3328L170.86 19.9171Z" fill="#5A5773"/>
<path d="M157.672 25.4573L164.267 22.6869L161.492 16.1026L154.897 18.8731L157.672 25.4573Z" fill="#5A5773"/>
<path d="M144.484 31.0004L151.079 28.2299L148.304 21.6457L141.71 24.4162L144.484 31.0004Z" fill="#5A5773"/>
<path d="M129.648 32.6467L131.298 36.5578L137.891 33.7864L135.116 27.2035L128.977 29.7819C129.391 30.3897 129.644 31.0927 129.71 31.8246C129.721 32.1001 129.7 32.3759 129.648 32.6467Z" fill="#5A5773"/>
<path d="M177.459 17.161L180.235 23.7439L185.781 21.4147C184.629 19.3236 183.602 17.1672 182.702 14.9563L177.459 17.161Z" fill="#5A5773"/>
<path d="M167.042 29.2715L173.637 26.501L170.862 19.9168L164.267 22.6872L167.042 29.2715Z" fill="#5A5773"/>
<path d="M153.851 34.813L160.446 32.0425L157.671 25.4582L151.076 28.2287L153.851 34.813Z" fill="#5A5773"/>
<path d="M140.664 40.3592L147.259 37.5887L144.484 31.0044L137.889 33.7749L140.664 40.3592Z" fill="#5A5773"/>
<path d="M173.638 26.5153L175.625 31.2267C177.919 30.5303 180.106 29.5224 182.125 28.2311L180.232 23.7408L173.638 26.5153Z" fill="#5A5773"/>
<path d="M160.436 32.0582L163.212 38.6411L165.616 37.629C165.716 37.5232 165.813 37.4142 165.9 37.3021C166.381 36.6793 166.696 35.9631 167.148 35.3278C167.617 34.6721 168.205 34.1102 168.882 33.6712L167.036 29.2867L160.436 32.0582Z" fill="#5A5773"/>
<path d="M150.037 44.1674L156.632 41.3969L153.857 34.8126L147.262 37.5831L150.037 44.1674Z" fill="#5A5773"/>
<path d="M134.071 43.1407L136.603 49.1507C136.778 49.3001 136.953 49.4621 137.121 49.6084L143.44 46.9522L140.664 40.3693L134.071 43.1407Z" fill="#5A5773"/>
<path d="M132.939 43.6172L134.071 43.1407L131.295 36.5578L129.807 37.1806C130.359 37.9591 131.123 38.6504 131.641 39.46C132.43 40.69 132.636 42.1754 132.939 43.6172Z" fill="#5A5773"/>
<path d="M156.631 41.4125L157.332 43.0816C159.462 41.942 161.52 40.6744 163.495 39.2856L163.224 38.6411L156.631 41.4125Z" fill="#5A5773"/>
<path d="M143.443 46.9553L144.666 49.8544C145.845 48.4344 147.096 47.1079 148.721 46.2578C149.321 45.9514 149.947 45.6992 150.592 45.5042L150.034 44.1839L143.443 46.9553Z" fill="#5A5773"/>
<path d="M197.087 56.9573L198.781 75.0525C198.781 75.0525 200.78 78.8235 203.088 80.0349C204.67 80.8601 207.767 83.4602 209.554 85.0172L209.947 85.3597C209.788 85.805 209.704 86.0791 209.704 86.0791C209.704 86.0791 215.857 98.1425 219.703 99.9517C223.549 101.761 220.935 116.991 221.088 124.079C221.194 129.03 222.878 131.77 224.725 133.128C224.659 133.227 224.594 133.33 224.531 133.439C221.799 137.976 220.698 147.891 221.858 152.434C221.912 152.651 221.992 152.86 222.095 153.057C221.412 156.794 220.732 162.851 222.782 165.563C225.86 169.633 229.397 186.221 229.397 186.221C229.397 186.221 231.705 197.833 233.396 199.791C234.624 201.214 234.556 213.745 234.425 220.518C233.514 220.496 232.605 220.423 231.702 220.3C224.375 219.325 230.879 223.753 233.661 225.5C232.413 226.297 230.133 226.901 225.863 226.332C220.003 225.553 222.994 228.231 225.863 230.227C227.721 231.504 229.917 232.203 232.173 232.236L253.382 232.628C253.645 230.594 253.717 228.541 253.597 226.494L259.212 226.596C259.212 226.596 259.882 221.735 259.162 218.659L259.52 218.603L256.751 197.039C256.751 197.039 256.598 177.134 257.063 175.929C258.457 172.286 257.686 166.5 256.751 162.156C255.964 158.551 255.886 154.827 256.523 151.192C258.136 142.161 255.784 135.155 254.184 131.705C254.109 131.543 254.037 131.393 253.965 131.247C254.926 131.266 255.525 131.297 255.525 131.297C252.602 129.186 255.837 109.733 258.756 105.663C261.676 101.593 268.319 103.863 268.319 103.863C268.928 103.365 269.485 102.81 269.985 102.203H270.312C272.708 102.269 276.064 102.281 279.548 102.044C286.163 101.593 284.625 97.062 284.625 97.062L282.012 79.2626C282.012 79.2626 275.396 64.3343 273.55 68.7063C271.703 73.0783 276.934 80.0162 276.934 80.0162C276.934 80.0162 279.242 91.7776 276.934 93.4373C275.474 94.4867 273.057 93.8235 271.476 93.1976C270.98 93.0014 270.565 92.8083 270.29 92.6713L269.929 92.4845C267.433 91.2389 261.046 88.8878 258.323 88.7664C254.939 88.6169 248.476 86.5057 248.476 86.5057C247.955 84.7151 246.464 83.6315 244.923 82.9744C244.724 81.3882 244.641 79.7897 244.674 78.1914C244.881 78.073 245.069 77.9251 245.232 77.7523C245.343 77.6616 245.442 77.5569 245.525 77.4409C245.996 76.7434 245.766 75.775 246.165 75.037C246.237 74.9062 245.214 74.0498 245.313 73.9409C245.937 73.3928 246.842 73.0939 247.378 72.5116C247.594 72.3299 247.761 72.0978 247.865 71.8358C248.286 70.7148 248.308 70.3411 248.177 69.1547C248.074 68.1084 248.392 67.2863 248.233 66.402C248.819 65.8726 249.097 65.2405 248.464 64.6115C247.3 63.4531 244.097 63.179 242.537 63.0949C241.315 63.0264 240.064 63.0949 238.898 62.7368C237.538 62.3133 236.434 61.3449 235.198 60.6443C233.963 59.9436 232.36 59.5232 231.144 60.2488C230.208 60.8062 229.584 61.9802 228.489 62.0518C227.585 62.1109 226.693 61.3449 225.844 61.6563L225.888 61.7559C225.821 61.768 225.756 61.7857 225.692 61.8089C226.685 64.1793 228.441 66.1517 230.682 67.414C229.785 68.7053 229.305 70.2395 229.307 71.8109C229.31 73.1451 229.655 74.4563 230.311 75.6191C230.966 76.782 231.909 77.7576 233.049 78.453C233.049 78.4592 233.049 78.4655 233.049 78.4717L233.096 78.9574C233.196 80.279 233.147 81.6075 232.953 82.9184L232.663 83.3139C231.952 83.6626 231.524 83.9367 231.524 83.9367C229.524 83.2779 227.462 82.823 225.37 82.579C222.292 82.2676 215.078 77.908 215.078 77.908C214.946 77.9222 214.816 77.9504 214.691 77.9921L214.473 77.7773C212.847 76.2319 210.816 75.1791 208.615 74.7411C208.615 74.7411 208.231 73.6108 207.383 71.5743C206.79 70.1512 203.076 62.2324 203.076 62.2324C203.076 62.2324 201.538 55.8986 201.844 52.7317C202.149 49.5648 197.087 43.5362 196.304 44.2898C195.521 45.0434 194.932 53.943 197.087 56.9573ZM241.461 157.189L241.549 157.23C241.764 157.354 241.964 158.033 242.154 159.098C242.815 162.866 243.317 171.495 243.635 178.318C243.695 179.613 243.748 180.843 243.794 181.961C243.033 178.47 242.235 174.646 242.166 173.497C242.063 172.04 241.702 163.168 241.461 157.189Z" fill="url(#paint1_linear_35_2469)"/>
<path d="M240.906 216.628C240.906 216.628 240.756 220.645 231.964 219.456C223.171 218.266 234.946 225.26 234.946 225.26L258.65 225.706C258.65 225.706 260.044 215.43 256.564 215.43C256.411 215.439 240.906 216.628 240.906 216.628Z" fill="#4A4347"/>
<path opacity="0.1" d="M240.906 216.628C240.906 216.628 240.756 220.645 231.964 219.456C223.171 218.266 234.946 225.26 234.946 225.26L258.65 225.706C258.65 225.706 260.044 215.43 256.564 215.43C256.411 215.439 240.906 216.628 240.906 216.628Z" fill="black"/>
<path d="M222.426 152.49C222.55 152.973 222.794 153.418 223.134 153.783C226.587 157.597 240.148 156.442 241.505 157.252C241.711 157.376 241.907 158.046 242.091 159.12C242.731 162.838 243.221 171.355 243.526 178.087C243.763 183.315 243.891 187.469 243.891 187.469L244.649 220.054L253.426 218.684L258.947 217.834L256.264 196.553C256.264 196.553 256.114 176.91 256.576 175.717C257.93 172.115 257.175 166.375 256.264 162.1C255.502 158.557 255.427 154.9 256.043 151.329C257.602 142.395 255.332 135.482 253.781 132.072C253.422 131.265 253.005 130.485 252.534 129.737C252.534 129.737 230.623 129.425 226.746 131.82C226.022 132.321 225.429 132.987 225.015 133.763C222.373 138.225 221.303 148.009 222.426 152.49Z" fill="#5A5773"/>
<path d="M235.245 222.582C235.245 222.582 235.095 226.599 226.303 225.41C220.623 224.641 223.524 227.278 226.303 229.256C228.098 230.531 230.238 231.235 232.441 231.273L252.995 231.66C252.995 231.66 254.39 221.384 250.909 221.384C250.747 221.393 235.245 222.582 235.245 222.582Z" fill="#4A4347"/>
<path d="M265.952 102.785C265.952 102.785 267.29 102.885 269.383 102.944C271.703 103.01 274.956 103.022 278.331 102.785C284.741 102.34 283.25 97.8747 283.25 97.8747L280.717 80.3151C280.717 80.3151 274.308 65.583 272.52 69.8989C270.733 74.2149 275.799 81.0594 275.799 81.0594C275.799 81.0594 278.035 92.6682 275.799 94.303C274.383 95.34 272.056 94.686 270.496 94.0664C269.981 93.8609 269.479 93.6249 268.993 93.3595L265.952 102.785Z" fill="#A1616A"/>
<path d="M198.428 58.2901L200.069 76.1487C200.069 76.1487 202.006 79.8698 204.242 81.0594C205.774 81.8752 208.768 84.4318 210.508 85.9638C211.31 86.6707 211.846 87.1596 211.846 87.1596L216.319 80.0162C216.011 79.5956 215.665 79.2037 215.287 78.8453C213.721 77.3246 211.751 76.2848 209.61 75.8497C209.61 75.8497 209.239 74.7349 208.419 72.7358C207.845 71.3314 204.245 63.5091 204.245 63.5091C204.245 63.5091 202.754 57.2594 203.054 54.133C203.353 51.0066 198.435 45.0558 197.689 45.8001C196.944 46.5443 196.342 55.3132 198.428 58.2901Z" fill="#A1616A"/>
<path d="M231.817 88.947C231.817 88.947 247.915 91.1797 245.828 87.608C245.254 86.6271 244.917 85.204 244.73 83.6595C244.237 79.5865 244.786 74.6602 244.786 74.6602L232.713 76.7434C233.406 79.0563 233.576 81.4943 233.208 83.8806C232.973 85.6238 232.505 87.3277 231.817 88.947Z" fill="#A1616A"/>
<path d="M237.407 80.6888C241.687 80.6888 245.157 77.2243 245.157 72.9506C245.157 68.6769 241.687 65.2124 237.407 65.2124C233.126 65.2124 229.656 68.6769 229.656 72.9506C229.656 77.2243 233.126 80.6888 237.407 80.6888Z" fill="#A1616A"/>
<path opacity="0.1" d="M225.018 133.757C225.733 134.35 226.584 134.756 227.494 134.94C229.88 135.385 237.631 136.279 240.613 133.897C242.977 132.01 250.684 131.991 253.772 132.066C253.412 131.259 252.995 130.478 252.525 129.73C252.525 129.73 230.613 129.419 226.737 131.814C226.017 132.316 225.428 132.982 225.018 133.757Z" fill="black"/>
<path opacity="0.1" d="M210.508 85.9638C211.31 86.6707 211.846 87.1596 211.846 87.1596L216.319 80.0162C216.011 79.5955 215.666 79.2037 215.287 78.8453C213.11 79.2626 211.219 83.9584 210.508 85.9638Z" fill="black"/>
<path opacity="0.1" d="M265.952 102.785C265.952 102.785 267.29 102.885 269.383 102.944C272.676 98.9989 270.927 95.1002 270.509 94.0664C269.994 93.8609 269.492 93.6249 269.005 93.3595L265.952 102.785Z" fill="black"/>
<path opacity="0.1" d="M231.817 88.947C231.817 88.947 247.915 91.1797 245.828 87.608C245.254 86.6271 244.917 85.204 244.73 83.6595C243.418 83.1229 242.028 82.7981 240.613 82.6973C237.85 82.0091 234.893 83.0772 233.208 83.8806C232.973 85.6238 232.505 87.3277 231.817 88.947Z" fill="black"/>
<path d="M240.613 82.9994C240.613 82.9994 247.023 83.3107 248.214 87.4648C248.214 87.4648 254.474 89.548 257.755 89.6975C261.036 89.8469 269.829 93.4186 269.979 94.0134C270.128 94.6082 273.098 99.8178 267.446 104.579C267.446 104.579 261.036 102.346 258.204 106.363C255.372 110.38 252.241 129.578 255.085 131.661C255.085 131.661 243.607 131.066 240.625 133.445C237.644 135.824 229.893 134.934 227.507 134.489C225.121 134.043 221.843 131.512 221.693 124.524C221.543 117.536 224.079 102.499 220.352 100.715C216.625 98.9304 210.664 87.0132 210.664 87.0132C210.664 87.0132 213.05 79.2751 215.882 78.9761C215.882 78.9761 222.888 83.2921 225.863 83.5879C227.892 83.8288 229.89 84.2775 231.827 84.9269C231.827 84.9269 236.44 81.95 240.613 82.9994Z" fill="#605D82"/>
<path opacity="0.1" d="M245.681 188.058C245.681 188.058 244.412 182.453 243.526 178.093C243.763 183.322 243.891 187.476 243.891 187.476L244.649 220.054L253.426 218.684L245.681 188.058Z" fill="black"/>
<path d="M223.321 149.949C223.321 149.949 220.339 161.409 223.321 165.426C226.303 169.443 229.731 185.813 229.731 185.813C229.731 185.813 231.967 197.272 233.608 199.203C235.248 201.133 234.503 223.906 234.503 223.906L253.881 222.863L245.086 188.039C245.086 188.039 242.254 175.54 242.104 173.307C241.954 171.074 241.209 151.727 241.209 151.727L223.321 149.949Z" fill="#5A5773"/>
<path opacity="0.1" d="M232.713 69.4225C231.24 68.8737 229.898 68.0258 228.77 66.9323C227.643 65.8389 226.755 64.5237 226.163 63.07C226.986 62.7587 227.85 63.5185 228.726 63.4593C229.787 63.3877 230.389 62.2137 231.297 61.6781C232.479 60.9619 234.032 61.3667 235.226 62.0705C236.421 62.7742 237.491 63.7178 238.81 64.135C239.939 64.4931 241.153 64.4215 242.338 64.49C243.841 64.5741 246.941 64.8419 248.067 65.9878C248.691 66.6106 248.411 67.2334 247.843 67.7565C247.996 68.6316 247.687 69.4381 247.787 70.4719C247.933 71.3662 247.812 72.2838 247.437 73.1094C247.01 74.2709 246.408 75.1833 245.825 76.2763C245.438 77.005 245.66 77.961 245.201 78.6492C244.956 78.9706 244.634 79.2263 244.265 79.3934C242.067 80.5671 239.507 80.8749 237.092 80.256C236.281 80.0442 235.445 79.683 235.011 78.9668C234.291 77.7741 235.011 76.2545 234.936 74.8626C234.852 72.8946 233.19 71.2847 232.713 69.4225Z" fill="black"/>
<path d="M232.859 69.273C231.387 68.7242 230.044 67.8763 228.917 66.7828C227.789 65.6894 226.901 64.3742 226.309 62.9206C227.133 62.6092 227.997 63.369 228.873 63.3098C229.934 63.2382 230.535 62.0642 231.443 61.5286C232.625 60.8124 234.178 61.2172 235.373 61.921C236.568 62.6247 237.637 63.5683 238.957 63.9855C240.086 64.3437 241.299 64.272 242.484 64.3405C243.988 64.4246 247.088 64.6924 248.214 65.8384C248.838 66.4611 248.557 67.0839 247.989 67.6071C248.142 68.4821 247.834 69.2886 247.933 70.3224C248.08 71.2168 247.958 72.1344 247.584 72.96C247.157 74.1215 246.555 75.0339 245.971 76.1269C245.585 76.8555 245.806 77.8115 245.348 78.4997C245.102 78.8211 244.781 79.0768 244.412 79.2439C242.213 80.4176 239.653 80.7254 237.238 80.1065C236.427 79.8947 235.591 79.5335 235.158 78.8173C234.437 77.6247 235.158 76.1051 235.083 74.7131C235.002 72.7482 233.339 71.1352 232.859 69.273Z" fill="#4A4347"/>
<path opacity="0.1" d="M234.425 79.6456L233.339 80.0286L233.29 79.5086C233.29 79.5086 233.233 79.7951 234.425 79.6456Z" fill="black"/>
<path d="M126.233 134.763L122.009 136.875C122.009 135.608 121.481 132.652 121.217 131.332C120.161 127.46 118.05 119.506 118.05 118.661C118.05 117.817 118.93 117.958 119.37 118.133C119.722 119.453 120.478 122.463 120.689 123.941C120.901 125.419 124.473 131.772 126.233 134.763Z" fill="#5A5773"/>
<path d="M131.512 146.906L129.4 136.875C131.934 137.297 140.135 126.492 143.918 121.037C144.974 120.404 145.062 121.301 144.974 121.829L137.583 133.18C133.993 137.614 132.04 144.178 131.512 146.906Z" fill="#5A5773"/>
<path d="M84.2622 152.185C80.8835 160.421 84.7901 168.815 87.1658 171.982C97.8124 165.383 119 151.604 118.578 149.281C118.05 146.378 113.298 141.098 104.851 140.571C96.4046 140.043 88.4857 141.89 84.2622 152.185Z" fill="#484561"/>
<path d="M94.8208 182.541C87.4298 182.33 82.7664 178.582 81.3586 176.734C82.9424 170.927 89.8055 169.871 88.4856 169.607C87.4298 169.396 88.0457 167.407 88.4856 166.439C90.3334 161.688 105.643 147.698 109.867 147.698C113.246 147.698 114.266 150.689 114.354 152.185C116.888 152.185 119.81 148.138 120.953 146.114C120.953 158.52 104.06 182.805 94.8208 182.541Z" fill="#5A5773"/>
<path d="M115.5 159.5C111.277 167.331 101.473 182.699 93.237 182.277C100.276 182.981 116.308 181.855 124.121 171.718C133.888 159.048 131.776 145.322 131.248 139.251C130.72 133.18 123.857 133.18 121.745 136.875C120.056 139.831 117.5 153 115.5 159.5Z" fill="#FC6681"/>
<g opacity="0.6">
<path d="M105.858 95.4859L104.476 96.177C104.476 95.7624 104.303 94.7949 104.217 94.3629C103.871 93.096 103.18 90.4929 103.18 90.2165C103.18 89.94 103.468 89.9861 103.612 90.0437C103.727 90.4756 103.975 91.4604 104.044 91.9442C104.113 92.4279 105.282 94.5069 105.858 95.4859Z" fill="#5A5773"/>
<path d="M107.586 99.4597L106.895 96.177C107.724 96.3152 110.408 92.7792 111.646 90.9939C111.992 90.7866 112.02 91.0803 111.992 91.2531L109.573 94.9676C108.398 96.4189 107.759 98.567 107.586 99.4597Z" fill="#5A5773"/>
<path d="M92.123 101.187C91.0173 103.883 92.2958 106.63 93.0732 107.666C96.5574 105.507 103.491 100.997 103.353 100.237C103.18 99.2869 101.625 97.5592 98.861 97.3864C96.0967 97.2136 93.5052 97.8183 92.123 101.187Z" fill="#484561"/>
<path d="M95.5784 111.122C93.1596 111.053 91.6335 109.826 91.1728 109.221C91.6911 107.321 93.9371 106.975 93.5052 106.889C93.1596 106.82 93.3612 106.169 93.5052 105.852C94.1099 104.297 99.1202 99.7188 100.502 99.7188C101.608 99.7188 101.942 100.698 101.971 101.187C102.8 101.187 103.756 99.8628 104.131 99.2005C104.131 103.261 98.6019 111.208 95.5784 111.122Z" fill="#5A5773"/>
<path d="M102.576 103.52C101.193 106.083 97.7553 111.173 95.0601 111.035C97.3637 111.266 102.61 110.897 105.167 107.58C108.363 103.433 107.672 98.9413 107.5 96.9545C107.327 94.9676 105.081 94.9676 104.39 96.177C103.837 97.1445 102.95 101.475 102.576 103.52Z" fill="#FC6681"/>
</g>
<g opacity="0.4">
<path d="M14.3819 91.5716L13.2301 92.1475C13.2301 91.802 13.0861 90.9957 13.0141 90.6358C12.7261 89.58 12.1502 87.4107 12.1502 87.1804C12.1502 86.95 12.3902 86.9884 12.5102 87.0364C12.6062 87.3963 12.8125 88.217 12.8701 88.6201C12.9277 89.0233 13.9019 90.7558 14.3819 91.5716Z" fill="#5A5773"/>
<path d="M15.8216 94.883L15.2457 92.1475C15.9368 92.2627 18.1732 89.316 19.205 87.8283C19.493 87.6555 19.517 87.9003 19.493 88.0442L17.4773 91.1397C16.4983 92.3491 15.9656 94.1392 15.8216 94.883Z" fill="#5A5773"/>
<path d="M2.93583 96.3228C2.01439 98.5688 3.07981 100.858 3.72769 101.722C6.63119 99.9222 12.4094 96.1644 12.2942 95.5309C12.1502 94.7391 10.8545 93.2993 8.55086 93.1553C6.24726 93.0114 4.08763 93.5153 2.93583 96.3228Z" fill="#484561"/>
<path d="M5.81534 104.601C3.79969 104.544 2.52791 103.522 2.14397 103.018C2.5759 101.434 4.44757 101.146 4.08764 101.074C3.79969 101.016 3.96766 100.474 4.08764 100.21C4.59155 98.9144 8.76682 95.099 9.91862 95.099C10.8401 95.099 11.1184 95.9149 11.1424 96.3228C11.8335 96.3228 12.6302 95.219 12.9421 94.6671C12.9421 98.0505 8.3349 104.673 5.81534 104.601Z" fill="#5A5773"/>
<path d="M11.6463 98.2665C10.4945 100.402 7.62942 104.645 5.38341 104.529C7.30308 104.721 11.6751 104.414 13.8059 101.65C16.4695 98.1945 15.8936 94.4511 15.7496 92.7954C15.6056 91.1397 13.734 91.1397 13.1581 92.1475C12.6973 92.9538 11.9583 96.5628 11.6463 98.2665Z" fill="#FC6681"/>
</g>
<g opacity="0.75">
<path d="M69.6411 104.36L67.535 105.413C67.535 104.781 67.2717 103.306 67.1401 102.648C66.6135 100.718 65.5604 96.7511 65.5604 96.3298C65.5604 95.9086 65.9992 95.9788 66.2186 96.0666C66.3941 96.7247 66.7715 98.2254 66.8768 98.9625C66.9821 99.6997 68.7635 102.868 69.6411 104.36Z" fill="#5A5773"/>
<path d="M72.2738 110.415L71.2207 105.413C72.4844 105.623 76.5738 100.235 78.4606 97.5145C78.9871 97.1986 79.031 97.6462 78.9871 97.9095L75.3014 103.57C73.5112 105.781 72.5371 109.054 72.2738 110.415Z" fill="#5A5773"/>
<path d="M48.7112 113.047C47.0263 117.154 48.9745 121.34 50.1592 122.92C55.4685 119.629 66.0343 112.758 65.8237 111.599C65.5604 110.151 63.191 107.519 58.9787 107.255C54.7664 106.992 50.8174 107.914 48.7112 113.047Z" fill="#484561"/>
<path d="M53.9766 128.185C50.2909 128.08 47.9653 126.211 47.2633 125.289C48.0531 122.393 51.4756 121.867 50.8174 121.735C50.2909 121.63 50.598 120.638 50.8174 120.156C51.7388 117.786 59.3736 110.81 61.4798 110.81C63.1647 110.81 63.6737 112.301 63.7176 113.047C64.9812 113.047 66.438 111.029 67.0084 110.02C67.0084 116.207 58.5838 128.317 53.9766 128.185Z" fill="#5A5773"/>
<path d="M64.639 116.602C62.5328 120.507 57.2938 128.264 53.1868 128.054C56.6971 128.405 64.6916 127.843 68.588 122.788C73.4585 116.47 72.4054 109.625 72.1422 106.597C71.8789 103.57 68.4564 103.57 67.4033 105.413C66.5609 106.887 65.2094 113.486 64.639 116.602Z" fill="#FC6681"/>
</g>
<g opacity="0.8">
<path d="M159.312 125.531L160.957 126.354C160.957 125.86 161.163 124.708 161.266 124.194C161.677 122.686 162.5 119.587 162.5 119.258C162.5 118.929 162.157 118.983 161.985 119.052C161.848 119.566 161.554 120.739 161.471 121.314C161.389 121.89 159.997 124.365 159.312 125.531Z" fill="#5A5773"/>
<path d="M157.255 130.261L158.078 126.354C157.09 126.518 153.895 122.309 152.421 120.183C152.01 119.936 151.976 120.286 152.01 120.492L154.89 124.914C156.288 126.642 157.049 129.199 157.255 130.261Z" fill="#5A5773"/>
<path d="M175.663 132.318C176.979 135.527 175.457 138.797 174.532 140.031C170.384 137.46 162.129 132.092 162.294 131.187C162.5 130.056 164.351 127.999 167.642 127.793C170.932 127.588 174.018 128.308 175.663 132.318Z" fill="#484561"/>
<path d="M171.55 144.145C174.429 144.063 176.246 142.602 176.794 141.882C176.177 139.62 173.503 139.209 174.018 139.106C174.429 139.023 174.189 138.249 174.018 137.872C173.298 136.021 167.333 130.57 165.688 130.57C164.371 130.57 163.974 131.736 163.939 132.318C162.952 132.318 161.814 130.741 161.368 129.953C161.368 134.786 167.95 144.248 171.55 144.145Z" fill="#5A5773"/>
<path d="M163.22 135.095C164.865 138.146 168.958 144.207 172.167 144.042C169.424 144.316 163.178 143.877 160.134 139.928C156.329 134.992 157.152 129.644 157.358 127.279C157.563 124.914 160.237 124.914 161.06 126.354C161.718 127.505 162.774 132.661 163.22 135.095Z" fill="#FC6681"/>
</g>
</g>
<defs>
<linearGradient id="paint0_linear_35_2469" x1="201.778" y1="28.3775" x2="126.36" y2="28.3775" gradientUnits="userSpaceOnUse">
<stop stop-color="#808080" stop-opacity="0.25"/>
<stop offset="0.54" stop-color="#808080" stop-opacity="0.12"/>
<stop offset="1" stop-color="#808080" stop-opacity="0.1"/>
</linearGradient>
<linearGradient id="paint1_linear_35_2469" x1="240.192" y1="232.628" x2="240.192" y2="44.2275" gradientUnits="userSpaceOnUse">
<stop stop-color="#808080" stop-opacity="0.25"/>
<stop offset="0.54" stop-color="#808080" stop-opacity="0.12"/>
<stop offset="1" stop-color="#808080" stop-opacity="0.1"/>
</linearGradient>
<clipPath id="clip0_35_2469">
<rect width="319" height="237" fill="white"/>
</clipPath>
</defs>
</svg>
