<svg width="42" height="34" viewBox="0 0 42 34" fill="none" xmlns="http://www.w3.org/2000/svg">
<path d="M39 32C39 33.1046 30.2696 34 19.5 34C8.73045 34 0 33.1046 0 32C0 30.8954 8.73045 30 19.5 30C30.2696 30 39 30.8954 39 32Z" fill="#D9D9D9"/>
<g clip-path="url(#clip0_61_2634)">
<path d="M0.430982 31.8445C1.71172 31.369 2.351 31.1301 3.54939 30.8826C3.54939 30.8826 3.95897 30.7979 4.55491 30.5677C4.22552 30.4266 3.88746 30.2463 3.54939 30.0183C1.80924 28.8327 1.23713 27.0847 0.81455 25.7883C-0.0891172 23.0153 0.181765 19.8102 2.29249 17.6127C6.06103 13.6931 12.6728 10.5814 17.8716 13.5368C19.3603 14.3837 20.6172 15.5802 21.7073 16.8917C21.8568 17.0698 24.065 19.706 23.6945 19.8775C23.9675 19.7516 24.4898 19.4953 25.0857 19.1566C26.7067 18.238 27.7469 17.3629 28.9713 16.3206C31.0582 14.5465 31.4114 13.9038 31.6086 13.4369C31.7885 13.0135 31.8903 12.6096 31.9922 11.9473C32.3909 9.35018 32.081 7.26556 31.6563 2.86397C31.5935 2.20167 31.5436 1.66097 31.5133 1.32656C31.121 1.11375 30.9932 0.6382 31.1774 0.316821C31.3984 -0.0697023 31.9879 -0.0849026 32.2804 0.171332C32.5838 0.436253 32.4863 0.922664 32.4733 0.987809C32.4256 1.2245 32.3042 1.38736 32.2327 1.46771C32.3238 2.52305 32.4473 3.96925 32.6163 5.88884C32.6423 6.1733 32.6055 5.77809 32.9522 8.72479C32.9999 9.13086 33.0887 9.89088 33.3835 10.8398C33.78 12.1123 34.0986 12.2839 34.1983 12.3295C34.3933 12.4185 34.8007 12.5097 36.0208 11.7518C36.7294 11.311 38.086 10.3534 40.0494 7.8106C40.3029 7.48271 40.5023 7.21127 40.6258 7.0419C40.6215 6.94201 40.6258 6.75743 40.7211 6.562C40.7667 6.46645 40.9379 6.11902 41.2976 6.0821C41.5663 6.05387 41.8719 6.20371 41.9694 6.46645C42.0951 6.80521 41.8004 7.14179 41.5858 7.28293C41.3778 7.41973 41.1589 7.43059 41.0592 7.42625C39.5878 9.20469 38.1163 10.9831 36.6471 12.7616C36.7576 12.7876 38.0188 13.1047 38.4219 14.2512C38.7383 15.1502 38.3179 15.9623 38.1813 16.2207C37.7783 16.9981 37.2278 17.2218 36.4542 17.8059C35.3923 18.6094 34.7704 19.4801 33.5286 21.2173C33.2361 21.6277 32.5686 22.5897 31.8492 23.9078C31.4309 24.6787 31.2207 25.063 31.0343 25.5429C30.3149 27.3865 30.7613 28.0271 30.0743 29.6275C29.7948 30.2789 29.5044 30.9608 28.8283 31.5015C28.1478 32.0465 27.3893 32.2007 25.3263 32.2702C22.0193 32.3809 21.8546 32.0552 19.8588 32.2702C18.2356 32.446 18.0016 32.6979 16.4045 32.7501C15.0219 32.7957 14.4779 32.6284 13.2384 32.5568C10.9629 32.4265 10.9456 32.8803 8.10674 32.9889C7.80335 32.9998 5.79448 32.8369 1.77456 32.509C1.16562 32.4591 0.0170679 32.3614 -0.000266023 32.1247C-0.00893682 32.0117 0.287953 31.8988 0.430982 31.8445Z" fill="#F15884"/>
</g>
<defs>
<clipPath id="clip0_61_2634">
<rect width="42" height="33" fill="white" transform="matrix(-1 -8.74228e-08 -8.74228e-08 1 42 0)"/>
</clipPath>
</defs>
</svg>
