<svg width="90" height="97" viewBox="0 0 90 97" fill="none" xmlns="http://www.w3.org/2000/svg">
<rect x="10.9413" width="67.4712" height="96.648" rx="7" fill="#FBFBFB"/>
<path d="M35.8096 12.2931H24.9771C24.3256 12.2931 23.7007 12.017 23.24 11.5254C22.7794 11.0339 22.5205 10.3671 22.5205 9.67196C22.5205 8.97678 22.7794 8.31008 23.24 7.81851C23.7007 7.32694 24.3256 7.05078 24.9771 7.05078H35.8096C36.4611 7.05078 37.0859 7.32694 37.5466 7.81851C38.0073 8.31008 38.2662 8.97678 38.2662 9.67196C38.2662 10.3671 38.0073 11.0339 37.5466 11.5254C37.0859 12.017 36.4611 12.2931 35.8096 12.2931Z" fill="#484561"/>
<path d="M68.9721 18.0118H23.8605C23.5051 18.0118 23.1643 17.8612 22.913 17.5931C22.6617 17.3249 22.5205 16.9613 22.5205 16.5821C22.5205 16.2029 22.6617 15.8392 22.913 15.5711C23.1643 15.303 23.5051 15.1523 23.8605 15.1523H68.9721C69.3275 15.1523 69.6683 15.303 69.9196 15.5711C70.1709 15.8392 70.3121 16.2029 70.3121 16.5821C70.3121 16.9613 70.1709 17.3249 69.9196 17.5931C69.6683 17.8612 69.3275 18.0118 68.9721 18.0118Z" fill="#E6E6E6"/>
<path d="M40.4313 23.7308H23.8605C23.5051 23.7308 23.1643 23.5802 22.913 23.3121C22.6617 23.0439 22.5205 22.6803 22.5205 22.3011C22.5205 21.9219 22.6617 21.5582 22.913 21.2901C23.1643 21.022 23.5051 20.8713 23.8605 20.8713H40.4313C40.7866 20.8713 41.1275 21.022 41.3787 21.2901C41.63 21.5582 41.7712 21.9219 41.7712 22.3011C41.7712 22.6803 41.63 23.0439 41.3787 23.3121C41.1275 23.5802 40.7866 23.7308 40.4313 23.7308Z" fill="#E6E6E6"/>
<path d="M35.8096 75.6777H24.9771C24.3256 75.6777 23.7007 75.4015 23.24 74.9099C22.7794 74.4184 22.5205 73.7517 22.5205 73.0565C22.5205 72.3613 22.7794 71.6946 23.24 71.203C23.7007 70.7115 24.3256 70.4353 24.9771 70.4353H35.8096C36.4611 70.4353 37.0859 70.7115 37.5466 71.203C38.0073 71.6946 38.2662 72.3613 38.2662 73.0565C38.2662 73.7517 38.0073 74.4184 37.5466 74.9099C37.0859 75.4015 36.4611 75.6777 35.8096 75.6777Z" fill="#484561"/>
<path d="M68.9721 81.3966H23.8605C23.5051 81.3966 23.1643 81.2459 22.913 80.9778C22.6617 80.7097 22.5205 80.346 22.5205 79.9668C22.5205 79.5877 22.6617 79.224 22.913 78.9559C23.1643 78.6877 23.5051 78.5371 23.8605 78.5371H68.9721C69.3275 78.5371 69.6683 78.6877 69.9196 78.9559C70.1709 79.224 70.3121 79.5877 70.3121 79.9668C70.3121 80.346 70.1709 80.7097 69.9196 80.9778C69.6683 81.2459 69.3275 81.3966 68.9721 81.3966Z" fill="#E6E6E6"/>
<path d="M40.4313 87.1158H23.8605C23.5051 87.1158 23.1643 86.9652 22.913 86.6971C22.6617 86.4289 22.5205 86.0653 22.5205 85.6861C22.5205 85.3069 22.6617 84.9432 22.913 84.6751C23.1643 84.407 23.5051 84.2563 23.8605 84.2563H40.4313C40.7866 84.2563 41.1275 84.407 41.3787 84.6751C41.63 84.9432 41.7712 85.3069 41.7712 85.6861C41.7712 86.0653 41.63 86.4289 41.3787 86.6971C41.1275 86.9652 40.7866 87.1158 40.4313 87.1158Z" fill="#E6E6E6"/>
<path d="M88.1017 57.3362H1.89826C1.39499 57.3356 0.912497 57.122 0.556629 56.7423C0.200761 56.3626 0.000579833 55.8477 0 55.3107V30.2904C0.000562137 29.7534 0.200737 29.2385 0.556609 28.8588C0.91248 28.4791 1.39498 28.2655 1.89826 28.2649H88.1017C88.605 28.2655 89.0875 28.4791 89.4434 28.8588C89.7992 29.2385 89.9994 29.7534 90 30.2904V55.3107C89.9994 55.8477 89.7992 56.3625 89.4434 56.7423C89.0875 57.122 88.605 57.3356 88.1017 57.3362Z" fill="#484561"/>
<path d="M32.5556 39.7028H17.5808C16.6298 39.7028 15.8561 38.527 15.8561 37.0816C15.8561 35.6363 16.6298 34.4604 17.5808 34.4604H32.5556C33.5067 34.4604 34.2804 35.6363 34.2804 37.0816C34.2804 38.527 33.5067 39.7028 32.5556 39.7028Z" fill="white"/>
<path d="M72.804 45.4217H17.196C16.8406 45.4217 16.4998 45.2711 16.2485 45.003C15.9972 44.7348 15.8561 44.3712 15.8561 43.992C15.8561 43.6128 15.9972 43.2491 16.2485 42.981C16.4998 42.7129 16.8406 42.5623 17.196 42.5623H72.804C73.1593 42.5623 73.5001 42.7129 73.7514 42.981C74.0027 43.2491 74.1439 43.6128 74.1439 43.992C74.1439 44.3712 74.0027 44.7348 73.7514 45.003C73.5001 45.2711 73.1593 45.4217 72.804 45.4217Z" fill="#E6E6E6"/>
<path d="M44.2631 51.1407H17.196C16.8406 51.1407 16.4998 50.9901 16.2485 50.722C15.9972 50.4538 15.8561 50.0902 15.8561 49.711C15.8561 49.3318 15.9972 48.9681 16.2485 48.7C16.4998 48.4319 16.8406 48.2812 17.196 48.2812H44.2631C44.6184 48.2812 44.9593 48.4319 45.2106 48.7C45.4618 48.9681 45.603 49.3318 45.603 49.711C45.603 50.0902 45.4618 50.4538 45.2106 50.722C44.9593 50.9901 44.6184 51.1407 44.2631 51.1407Z" fill="#E6E6E6"/>
</svg>
