<svg width="89" height="105" viewBox="0 0 89 105" fill="none" xmlns="http://www.w3.org/2000/svg">
<path d="M63.2931 87.9649L64.1734 104.822C64.1734 104.822 26.9346 69.4754 22.2953 59.1334C17.656 48.7913 26.3888 23.2083 26.3888 23.2083L45.7647 33.8225L63.2931 87.9649Z" fill="#FBBEBE"/>
<path d="M6.19419 16.1321L0.463305 16.6764C0.463305 16.6764 -2.5386 23.2082 6.74 23.7526L6.19419 16.1321Z" fill="#FBBEBE"/>
<path d="M6.19419 26.2019L0.463305 26.7462C0.463305 26.7462 -2.5386 33.2781 6.74 33.8224L6.19419 26.2019Z" fill="#FBBEBE"/>
<path d="M6.19419 37.0884L0.463305 37.6327C0.463305 37.6327 -2.5386 44.1645 6.74 44.7089L6.19419 37.0884Z" fill="#FBBEBE"/>
<path d="M7.8316 47.9746L2.10071 48.5189C2.10071 48.5189 -0.901196 55.0508 8.37741 55.5951L7.8316 47.9746Z" fill="#FBBEBE"/>
<path d="M3.40417 18.7561H3.83902V6.87592C3.83902 5.97296 4.01735 5.07885 4.36384 4.24462C4.71033 3.4104 5.21818 2.6524 5.8584 2.01391C6.49862 1.37542 7.25868 0.868949 8.09517 0.523401C8.93166 0.177853 9.82821 6.91809e-07 10.7336 0H35.9718C36.8772 -1.84477e-06 37.7737 0.177848 38.6102 0.523393C39.4467 0.868938 40.2068 1.37541 40.847 2.0139C41.4872 2.65239 41.9951 3.41038 42.3416 4.2446C42.6881 5.07882 42.8664 5.97294 42.8664 6.8759V72.0514C42.8664 72.9544 42.6881 73.8485 42.3416 74.6827C41.9951 75.5169 41.4873 76.2749 40.847 76.9134C40.2068 77.5519 39.4468 78.0584 38.6103 78.4039C37.7738 78.7495 36.8772 78.9273 35.9718 78.9273H10.7337C8.90509 78.9273 7.15142 78.2029 5.85843 76.9134C4.56543 75.624 3.83903 73.875 3.83903 72.0514V27.2126H3.40417V18.7561Z" fill="#3F3D56"/>
<path d="M10.4554 1.78882H13.7499C13.5984 2.15925 13.5405 2.56115 13.5815 2.95911C13.6224 3.35708 13.7608 3.7389 13.9846 4.07093C14.2083 4.40297 14.5105 4.67504 14.8646 4.86317C15.2186 5.05129 15.6136 5.14971 16.0147 5.14974H30.4733C30.8745 5.14971 31.2694 5.0513 31.6235 4.86317C31.9775 4.67504 32.2797 4.40298 32.5034 4.07094C32.7272 3.7389 32.8656 3.35708 32.9066 2.95911C32.9475 2.56114 32.8897 2.15924 32.7382 1.78882H35.8152C37.1807 1.78882 38.4903 2.32981 39.4559 3.29278C40.4215 4.25575 40.964 5.56182 40.964 6.92367V72.0035C40.964 72.6779 40.8308 73.3456 40.572 73.9686C40.3133 74.5916 39.934 75.1576 39.4559 75.6344C38.9778 76.1113 38.4102 76.4895 37.7855 76.7475C37.1608 77.0056 36.4913 77.1384 35.8152 77.1384H10.4554C9.77929 77.1384 9.10976 77.0056 8.48508 76.7475C7.8604 76.4895 7.29279 76.1113 6.81468 75.6344C6.33657 75.1576 5.95731 74.5916 5.69855 73.9686C5.4398 73.3456 5.30663 72.6779 5.30663 72.0035V6.92367C5.30663 6.24935 5.4398 5.58164 5.69855 4.95865C5.95731 4.33566 6.33657 3.7696 6.81468 3.29278C7.29279 2.81597 7.8604 2.43774 8.48508 2.17969C9.10976 1.92164 9.77929 1.78882 10.4554 1.78882Z" fill="white"/>
<path d="M28.5686 20.021H17.702V22.6361H28.5686V20.021Z" fill="#484561"/>
<path d="M29.0859 31.2578H17.1847V33.8729H29.0859V31.2578Z" fill="#E5E5E5"/>
<path d="M36.4164 36.8755H9.85408V39.4906H36.4164V36.8755Z" fill="#E5E5E5"/>
<path d="M36.4164 42.4929H9.85408V45.108H36.4164V42.4929Z" fill="#E5E5E5"/>
<path d="M89 96.7447L58.4545 61.9909L57.3629 39.6738L45.9011 20.6226L42.6263 12.4578C42.6263 12.4578 34.9851 13.2742 41.2618 28.7874L43.8544 37.0882C41.5174 42.1081 40.3067 47.576 40.3067 53.1105V72.1319C40.3067 76.6108 61.7086 101.008 64.1998 104.734L89 96.7447Z" fill="#FBBEBE"/>
<path opacity="0.2" d="M43.5249 22.2369L45.8035 21.1201L45.7258 20.9624L43.6205 21.9944L40.4423 13.6846L40.2779 13.7473L43.5249 22.2369Z" fill="black"/>
<path opacity="0.2" d="M0.493838 16.5938L0.432968 16.7585L3.80848 17.9986L3.86935 17.8338L0.493838 16.5938Z" fill="black"/>
<path opacity="0.2" d="M0.493838 26.7783L0.432968 26.9431L3.80848 28.1832L3.86935 28.0184L0.493838 26.7783Z" fill="black"/>
<path opacity="0.2" d="M0.493838 37.6653L0.432968 37.8301L3.80848 39.0701L3.86935 38.9053L0.493838 37.6653Z" fill="black"/>
<path opacity="0.2" d="M2.26227 48.5556L2.1861 48.7139L3.82949 49.5005L3.90566 49.3422L2.26227 48.5556Z" fill="black"/>
<path d="M23.1487 67.6763C27.3526 67.6763 30.7605 64.2777 30.7605 60.0852C30.7605 55.8928 27.3526 52.4941 23.1487 52.4941C18.9449 52.4941 15.537 55.8928 15.537 60.0852C15.537 64.2777 18.9449 67.6763 23.1487 67.6763Z" fill="#484561"/>
<path d="M22.4233 63.2897L20.1453 60.3683L21.4701 59.3407L22.5487 60.7239L26.1929 56.8875L27.4115 58.0388L22.4233 63.2897Z" fill="white"/>
</svg>
